<?xml version="1.0" encoding="UTF-8"?><svg id="OBJECTS" xmlns="http://www.w3.org/2000/svg" viewBox="0 0 802 802"><defs><style>.cls-1{fill:#962020;}.cls-1,.cls-2,.cls-3,.cls-4,.cls-5,.cls-6,.cls-7,.cls-8,.cls-9,.cls-10,.cls-11,.cls-12,.cls-13,.cls-14,.cls-15,.cls-16,.cls-17,.cls-18{stroke-width:0px;}.cls-2{fill:#fcd077;}.cls-19{fill:#eeff94;}.cls-19,.cls-20,.cls-21,.cls-22,.cls-23,.cls-24,.cls-25,.cls-26,.cls-27,.cls-28,.cls-29,.cls-30,.cls-31,.cls-32,.cls-33,.cls-34{stroke:#000;stroke-miterlimit:10;stroke-width:2px;}.cls-20{fill:#ffda23;}.cls-3{fill:#f99;}.cls-21,.cls-13{fill:#837fff;}.cls-4{fill:#949494;}.cls-5,.cls-31{fill:#ffb71c;}.cls-6,.cls-28{fill:#94b3ff;}.cls-22{fill:#b10040;}.cls-23,.cls-7{fill:#ff3838;}.cls-24{fill:#51ab7a;}.cls-8{fill:#bca661;}.cls-9{fill:#c0d6f9;}.cls-25,.cls-10,.cls-11{fill:#515151;}.cls-26{fill:#d18856;}.cls-10,.cls-17{opacity:.5;}.cls-27{fill:#c03838;}.cls-29{fill:#4c3c51;}.cls-12{fill:#d1d1d1;}.cls-30{fill:#fff2f0;}.cls-32{fill:#863900;}.cls-14{fill:#ffe686;}.cls-15{fill:#7c5342;}.cls-16{fill:#ffb146;}.cls-33{fill:#e29f71;}.cls-17{fill:#ffc2c2;}.cls-18{fill:#82002f;}.cls-34{fill:#f4ab7a;}</style></defs><g id="SHELF"><g id="Layer_2"><rect class="cls-15" x="18.69" y="14.37" width="759" height="764"/><rect class="cls-33" x="19" y="212.08" width="768" height="25.24"/><rect class="cls-33" x="19" y="394.69" width="768" height="25.24"/><rect class="cls-33" x="19" y="559.4" width="768" height="25.24"/></g><path class="cls-26" d="M1,1v800h800V1H1ZM774.89,774.89H27.11V27.11h747.79v747.79Z"/></g><g id="MULTICOLOR"><path class="cls-30" d="M122.73,375.73c4,0,7.24,2.23,7.24,4.97v7.87c0,2.75-3.24,4.97-7.24,4.97H35.24c-4,0-7.24-2.23-7.24-4.97v-7.87c0-2.75,3.24-4.97,7.24-4.97h87.5Z"/><path class="cls-10" d="M40.9,378.72c5.21,0,9.44,2.65,9.44,5.92s-4.23,5.92-9.44,5.92-9.44-2.65-9.44-5.92,4.22-5.92,9.44-5.92Z"/><path class="cls-27" d="M288.52,612.01c4,0,7.24,2.23,7.24,4.97v7.87c0,2.75-3.24,4.97-7.24,4.97h-87.5c-4,0-7.24-2.23-7.24-4.97v-7.87c0-2.75,3.24-4.97,7.24-4.97h87.5Z"/><path class="cls-10" d="M206.69,615c5.21,0,9.44,2.65,9.44,5.92s-4.23,5.92-9.44,5.92-9.44-2.65-9.44-5.92,4.22-5.92,9.44-5.92Z"/><path class="cls-28" d="M122.73,358.2c4,0,7.24,2.23,7.24,4.97v7.87c0,2.75-3.24,4.97-7.24,4.97H35.24c-4,0-7.24-2.22-7.24-4.97v-7.87c0-2.75,3.24-4.97,7.24-4.97h87.5Z"/><path class="cls-10" d="M40.9,361.18c5.21,0,9.44,2.65,9.44,5.92s-4.23,5.92-9.44,5.92-9.44-2.65-9.44-5.92,4.22-5.92,9.44-5.92Z"/><path class="cls-27" d="M35.24,266.55c-4,0-7.24,2.23-7.24,4.97v7.87c0,2.75,3.24,4.97,7.24,4.97h87.5c4,0,7.24-2.23,7.24-4.97v-7.87c0-2.74-3.24-4.97-7.24-4.97H35.24Z"/><path class="cls-10" d="M117.06,269.54c-5.21,0-9.44,2.65-9.44,5.92s4.23,5.92,9.44,5.92,9.44-2.65,9.44-5.92-4.22-5.92-9.44-5.92Z"/><path class="cls-24" d="M122.73,339.42c4,0,7.24,2.23,7.24,4.97v7.87c0,2.74-3.24,4.97-7.24,4.97H35.24c-4,0-7.24-2.23-7.24-4.97v-7.87c0-2.75,3.24-4.97,7.24-4.97h87.5Z"/><path class="cls-10" d="M40.9,342.41c5.21,0,9.44,2.65,9.44,5.92s-4.23,5.92-9.44,5.92-9.44-2.65-9.44-5.92,4.22-5.92,9.44-5.92Z"/><path class="cls-24" d="M277.89,630.72c4,0,7.24,2.23,7.24,4.97v7.87c0,2.74-3.24,4.97-7.24,4.97h-87.5c-4,0-7.24-2.23-7.24-4.97v-7.87c0-2.75,3.24-4.97,7.24-4.97h87.5Z"/><path class="cls-10" d="M196.06,633.71c5.21,0,9.44,2.65,9.44,5.92s-4.23,5.92-9.44,5.92-9.44-2.65-9.44-5.92,4.22-5.92,9.44-5.92Z"/><path class="cls-24" d="M364.3,158.24c0,4.2-2.12,7.61-4.73,7.61h-7.49c-2.61,0-4.73-3.4-4.73-7.61v-91.89c0-4.2,2.12-7.6,4.73-7.6h7.49c2.61,0,4.73,3.4,4.73,7.6v91.89Z"/><path class="cls-10" d="M361.46,72.31c0,5.48-2.52,9.91-5.64,9.91s-5.64-4.44-5.64-9.91,2.52-9.91,5.64-9.91,5.64,4.44,5.64,9.91Z"/><path class="cls-24" d="M382.36,158.24c0,4.2-2.12,7.61-4.73,7.61h-7.49c-2.61,0-4.73-3.4-4.73-7.61v-91.89c0-4.2,2.12-7.6,4.73-7.6h7.49c2.61,0,4.73,3.4,4.73,7.6v91.89Z"/><path class="cls-10" d="M379.52,72.31c0,5.48-2.52,9.91-5.64,9.91s-5.64-4.44-5.64-9.91,2.52-9.91,5.64-9.91,5.64,4.44,5.64,9.91Z"/><path class="cls-24" d="M400.43,158.24c0,4.2-2.12,7.61-4.73,7.61h-7.49c-2.61,0-4.73-3.4-4.73-7.61v-91.89c0-4.2,2.12-7.6,4.73-7.6h7.49c2.61,0,4.73,3.4,4.73,7.6v91.89Z"/><path class="cls-10" d="M397.59,72.31c0,5.48-2.52,9.91-5.64,9.91s-5.64-4.44-5.64-9.91,2.52-9.91,5.64-9.91,5.64,4.44,5.64,9.91Z"/><path class="cls-30" d="M35.24,321.48c-4,0-7.24,2.23-7.24,4.97v7.87c0,2.75,3.24,4.97,7.24,4.97h87.5c4,0,7.24-2.22,7.24-4.97v-7.87c0-2.75-3.24-4.97-7.24-4.97H35.24Z"/><path class="cls-10" d="M117.06,324.47c-5.21,0-9.44,2.65-9.44,5.92s4.23,5.92,9.44,5.92,9.44-2.65,9.44-5.92-4.22-5.92-9.44-5.92Z"/><path class="cls-28" d="M475.75,332.11c1.71,3.74,4.99,5.82,7.32,4.65l6.68-3.37c2.33-1.18,2.83-5.16,1.12-8.9l-37.44-81.86c-1.71-3.74-4.99-5.82-7.32-4.65l-6.68,3.37c-2.33,1.18-2.83,5.16-1.12,8.9l37.44,81.86Z"/><path class="cls-10" d="M443.27,254.28c2.23,4.88,6.29,7.7,9.06,6.3,2.77-1.4,3.21-6.49.98-11.37-2.23-4.88-6.29-7.7-9.06-6.3-2.77,1.4-3.21,6.49-.98,11.36Z"/><path class="cls-28" d="M122.73,303.95c4,0,7.24,2.23,7.24,4.97v7.87c0,2.75-3.24,4.97-7.24,4.97H35.24c-4,0-7.24-2.23-7.24-4.97v-7.87c0-2.74,3.24-4.97,7.24-4.97h87.5Z"/><path class="cls-10" d="M40.9,306.93c5.21,0,9.44,2.65,9.44,5.92s-4.23,5.92-9.44,5.92-9.44-2.65-9.44-5.92,4.22-5.92,9.44-5.92Z"/><path class="cls-27" d="M122.73,285.97c4,0,7.24,2.23,7.24,4.97v7.87c0,2.75-3.24,4.97-7.24,4.97H35.24c-4,0-7.24-2.23-7.24-4.97v-7.87c0-2.75,3.24-4.97,7.24-4.97h87.5Z"/><path class="cls-10" d="M40.9,288.95c5.21,0,9.44,2.65,9.44,5.92s-4.23,5.92-9.44,5.92-9.44-2.65-9.44-5.92,4.22-5.92,9.44-5.92Z"/><path class="cls-30" d="M410.48,481.46c4,0,7.24,2.23,7.24,4.97v7.87c0,2.75-3.24,4.97-7.24,4.97h-87.5c-4,0-7.24-2.22-7.24-4.97v-7.87c0-2.75,3.24-4.97,7.24-4.97h87.5Z"/><path class="cls-10" d="M328.65,484.44c5.21,0,9.44,2.65,9.44,5.92s-4.23,5.92-9.44,5.92-9.44-2.65-9.44-5.92,4.22-5.92,9.44-5.92Z"/><path class="cls-28" d="M418.98,463.92c4,0,7.24,2.23,7.24,4.97v7.87c0,2.75-3.24,4.97-7.24,4.97h-87.5c-4,0-7.24-2.23-7.24-4.97v-7.87c0-2.74,3.24-4.97,7.24-4.97h87.5Z"/><path class="cls-10" d="M337.16,466.9c5.21,0,9.44,2.65,9.44,5.92s-4.23,5.92-9.44,5.92-9.44-2.65-9.44-5.92,4.22-5.92,9.44-5.92Z"/><path class="cls-27" d="M415.8,445.94c4,0,7.24,2.23,7.24,4.97v7.87c0,2.75-3.24,4.97-7.24,4.97h-87.5c-4,0-7.24-2.23-7.24-4.97v-7.87c0-2.75,3.24-4.97,7.24-4.97h87.5Z"/><path class="cls-10" d="M333.97,448.93c5.21,0,9.44,2.65,9.44,5.92s-4.23,5.92-9.44,5.92-9.44-2.65-9.44-5.92,4.22-5.92,9.44-5.92Z"/><path class="cls-34" d="M680.15,175.99c-4,0-7.24-2.23-7.24-4.97v-7.87c0-2.75,3.24-4.97,7.24-4.97h87.49c4,0,7.24,2.23,7.24,4.97v7.87c0,2.74-3.24,4.97-7.24,4.97h-87.49Z"/><path class="cls-10" d="M761.97,173c-5.21,0-9.44-2.65-9.44-5.92s4.23-5.92,9.44-5.92,9.44,2.65,9.44,5.92-4.22,5.92-9.44,5.92Z"/><path class="cls-30" d="M680.15,194.35c-4,0-7.24-2.23-7.24-4.97v-7.87c0-2.74,3.24-4.97,7.24-4.97h87.49c4,0,7.24,2.23,7.24,4.97v7.87c0,2.74-3.24,4.97-7.24,4.97h-87.49Z"/><path class="cls-10" d="M761.97,191.36c-5.21,0-9.44-2.65-9.44-5.92s4.23-5.92,9.44-5.92,9.44,2.65,9.44,5.92-4.22,5.92-9.44,5.92Z"/><path class="cls-28" d="M680.15,211.89c-4,0-7.24-2.23-7.24-4.97v-7.87c0-2.75,3.24-4.97,7.24-4.97h87.49c4,0,7.24,2.22,7.24,4.97v7.87c0,2.74-3.24,4.97-7.24,4.97h-87.49Z"/><path class="cls-10" d="M761.97,208.9c-5.21,0-9.44-2.65-9.44-5.92s4.23-5.92,9.44-5.92,9.44,2.65,9.44,5.92-4.22,5.92-9.44,5.92Z"/><path class="cls-30" d="M588.48,317.7c4,0,7.24,2.22,7.24,4.97v7.87c0,2.75-3.24,4.97-7.24,4.97h-87.49c-4,0-7.24-2.22-7.24-4.97v-7.87c0-2.75,3.24-4.97,7.24-4.97h87.49Z"/><path class="cls-10" d="M506.65,320.68c5.21,0,9.44,2.65,9.44,5.92s-4.23,5.92-9.44,5.92-9.44-2.65-9.44-5.92,4.22-5.92,9.44-5.92Z"/><path class="cls-28" d="M496.73,300.15c-4,0-7.24,2.23-7.24,4.97v7.87c0,2.75,3.24,4.97,7.24,4.97h87.49c4,0,7.24-2.23,7.24-4.97v-7.87c0-2.74-3.24-4.97-7.24-4.97h-87.49Z"/><ellipse class="cls-10" cx="578.56" cy="309.06" rx="9.44" ry="5.92"/><path class="cls-27" d="M588.48,282.18c4,0,7.24,2.23,7.24,4.97v7.87c0,2.74-3.24,4.97-7.24,4.97h-87.49c-4,0-7.24-2.23-7.24-4.97v-7.87c0-2.75,3.24-4.97,7.24-4.97h87.49Z"/><path class="cls-10" d="M506.65,285.16c5.21,0,9.44,2.65,9.44,5.92s-4.23,5.92-9.44,5.92-9.44-2.65-9.44-5.92,4.22-5.92,9.44-5.92Z"/><path class="cls-24" d="M702.66,385.14c-.49,4.17,1.21,7.82,3.81,8.16l7.44.97c2.59.34,5.1-2.77,5.59-6.94l10.78-91.19c.49-4.17-1.21-7.82-3.8-8.16l-7.44-.97c-2.59-.34-5.1,2.77-5.59,6.93l-10.78,91.19Z"/><path class="cls-10" d="M715.56,300.22c-.64,5.43,1.34,10.16,4.43,10.57,3.09.4,6.11-3.68,6.76-9.11.64-5.43-1.34-10.16-4.43-10.57-3.09-.4-6.11,3.67-6.75,9.11Z"/><path class="cls-30" d="M672.94,383.71c-1,4.07.24,7.92,2.77,8.6l7.26,1.97c2.53.69,5.39-2.06,6.39-6.12l21.84-88.98c1-4.07-.24-7.92-2.77-8.6l-7.26-1.96c-2.53-.69-5.39,2.06-6.39,6.12l-21.84,88.98Z"/><path class="cls-10" d="M696.12,301.24c-1.3,5.3.09,10.26,3.1,11.08,3.01.81,6.51-2.82,7.81-8.12,1.3-5.3-.09-10.26-3.1-11.08-3.01-.82-6.51,2.82-7.81,8.12Z"/><path class="cls-28" d="M690.74,523.77c0,4.2-2.12,7.6-4.73,7.6h-7.5c-2.62,0-4.73-3.4-4.73-7.6v-91.89c0-4.2,2.12-7.6,4.73-7.6h7.5c2.61,0,4.73,3.41,4.73,7.6v91.89Z"/><path class="cls-11" d="M687.9,437.83c0,5.47-2.52,9.91-5.64,9.91s-5.64-4.44-5.64-9.91,2.52-9.91,5.64-9.91,5.64,4.44,5.64,9.91Z"/><path class="cls-27" d="M720.22,521.62c.52,4.16-1.16,7.83-3.75,8.19l-7.43,1.02c-2.59.36-5.11-2.73-5.63-6.89l-11.38-91.11c-.52-4.16,1.16-7.83,3.75-8.19l7.43-1.02c2.59-.36,5.12,2.73,5.64,6.89l11.38,91.11Z"/><path class="cls-10" d="M706.76,436.8c.68,5.43-1.27,10.17-4.36,10.6-3.09.43-6.14-3.63-6.82-9.06-.68-5.43,1.28-10.17,4.36-10.6,3.09-.43,6.14,3.63,6.82,9.06Z"/><path class="cls-34" d="M414.07,111.99c-4,0-7.24-2.23-7.24-4.97v-7.87c0-2.74,3.24-4.97,7.24-4.97h87.5c4,0,7.24,2.23,7.24,4.97v7.87c0,2.75-3.24,4.97-7.24,4.97h-87.5Z"/><path class="cls-10" d="M495.9,109.01c-5.21,0-9.44-2.65-9.44-5.92s4.23-5.92,9.44-5.92,9.44,2.65,9.44,5.92-4.22,5.92-9.44,5.92Z"/><path class="cls-30" d="M501.57,129.93c4,0,7.24-2.23,7.24-4.97v-7.87c0-2.75-3.24-4.97-7.24-4.97h-87.5c-4,0-7.24,2.22-7.24,4.97v7.87c0,2.75,3.24,4.97,7.24,4.97h87.5Z"/><path class="cls-10" d="M419.74,126.94c5.21,0,9.44-2.65,9.44-5.92s-4.23-5.92-9.44-5.92-9.44,2.65-9.44,5.92,4.23,5.92,9.44,5.92Z"/><path class="cls-28" d="M408.76,147.47c-4,0-7.24-2.23-7.24-4.97v-7.87c0-2.75,3.24-4.97,7.24-4.97h87.5c4,0,7.24,2.23,7.24,4.97v7.87c0,2.74-3.24,4.97-7.24,4.97h-87.5Z"/><path class="cls-10" d="M490.59,144.48c-5.21,0-9.44-2.65-9.44-5.92s4.23-5.92,9.44-5.92,9.44,2.65,9.44,5.92-4.22,5.92-9.44,5.92Z"/><path class="cls-27" d="M414.07,165.45c-4,0-7.24-2.23-7.24-4.97v-7.87c0-2.75,3.24-4.97,7.24-4.97h87.5c4,0,7.24,2.23,7.24,4.97v7.87c0,2.75-3.24,4.97-7.24,4.97h-87.5Z"/><path class="cls-10" d="M495.9,162.46c-5.21,0-9.44-2.65-9.44-5.92s4.23-5.92,9.44-5.92,9.44,2.65,9.44,5.92-4.22,5.92-9.44,5.92Z"/></g><g id="WHITES"><path class="cls-30" d="M444.74,758.24c1.87,9.29-.81,12.44-4.73,13.32l-11.24,2.5c-3.92.87-7.5-.38-9.47-10.16l-28.6-141.85c-1.97-9.78.81-12.45,4.73-13.32l11.24-2.5c3.92-.87,7.29-.6,9.46,10.16l28.6,141.85Z"/><path class="cls-6" d="M408.88,647.31c-2.92.65-4.07-.05-4.29-1.18l-5.07-25.14c-.23-1.13,1.33-2.43,3.47-2.9h0c2.14-.48,4.07.05,4.29,1.18l5.07,25.14c.23,1.13.22,2.08-3.47,2.9h0Z"/><path class="cls-12" d="M432.95,766.65c-2.14.48-3.88.87-5.5-7.15l-19.89-98.64c-1.61-7.97-.65-8.22,2.27-8.87h0c3.69-.82,3.74-1.57,5.5,7.14l19.89,98.64c1.75,8.67-.12,8.4-2.27,8.87h0Z"/><path class="cls-30" d="M416.96,758.38c1.88,9.29-.8,12.45-4.72,13.32l-11.24,2.51c-3.92.87-7.49-.37-9.47-10.15l-28.71-141.83c-1.98-9.78.8-12.45,4.72-13.32l11.24-2.51c3.92-.87,7.29-.6,9.47,10.15l28.71,141.83Z"/><path class="cls-6" d="M381.01,647.47c-2.92.65-4.07-.05-4.3-1.17l-5.09-25.13c-.23-1.13,1.33-2.43,3.47-2.91h0c2.14-.48,4.07.05,4.29,1.17l5.09,25.13c.23,1.13.22,2.08-3.47,2.91h0Z"/><path class="cls-12" d="M405.17,766.8c-2.15.48-3.88.87-5.51-7.14l-19.96-98.62c-1.61-7.97-.65-8.22,2.26-8.87h0c3.68-.82,3.74-1.57,5.5,7.14l19.97,98.62c1.75,8.67-.11,8.4-2.26,8.88h0Z"/><path class="cls-30" d="M527.22,762c0,9.5-3.25,12-7.26,12h-11.49c-4.01,0-7.26-2-7.26-12v-145c0-10,3.25-12,7.26-12h11.49c4.01,0,7.26,1,7.26,12v145Z"/><path class="cls-6" d="M514.03,645.67c-2.98,0-3.97-.93-3.97-2.09v-25.69c0-1.15,1.77-2.09,3.97-2.09h0c2.19,0,3.97.93,3.97,2.09v25.69c0,1.15-.2,2.09-3.97,2.09h0Z"/><path class="cls-12" d="M514.03,767.66c-2.19,0-3.97,0-3.97-8.19v-100.83c0-8.15.99-8.18,3.97-8.18h0c3.77,0,3.97-.72,3.97,8.18v100.83c0,8.86-1.78,8.19-3.97,8.19h0Z"/><path class="cls-30" d="M500.49,762c0,9.5-3.25,12-7.26,12h-11.49c-4.01,0-7.26-2-7.26-12v-145c0-10,3.25-12,7.26-12h11.49c4.01,0,7.26,1,7.26,12v145Z"/><path class="cls-6" d="M487.29,645.67c-2.98,0-3.97-.93-3.97-2.09v-25.69c0-1.15,1.78-2.09,3.97-2.09h0c2.19,0,3.96.93,3.96,2.09v25.69c0,1.15-.2,2.09-3.96,2.09h0Z"/><path class="cls-12" d="M487.29,767.66c-2.19,0-3.97,0-3.97-8.19v-100.83c0-8.15.99-8.18,3.97-8.18h0c3.77,0,3.96-.72,3.96,8.18v100.83c0,8.86-1.78,8.19-3.96,8.19h0Z"/><path class="cls-30" d="M169.97,762.94c-.83,9.46-4.28,11.64-8.27,11.26l-11.44-1.1c-3.99-.38-7.05-2.69-6.18-12.65l12.59-144.39c.87-9.96,4.28-11.64,8.27-11.26l11.44,1.1c3.99.38,7.14,1.69,6.18,12.65l-12.59,144.39Z"/><path class="cls-6" d="M166.93,645.83c-2.97-.28-3.87-1.31-3.77-2.46l2.23-25.59c.1-1.15,1.95-1.91,4.13-1.69h0c2.18.21,3.87,1.31,3.77,2.46l-2.23,25.59c-.1,1.15-.38,2.06-4.13,1.7h0Z"/><path class="cls-12" d="M156.34,767.32c-2.18-.21-3.95-.38-3.24-8.54l8.76-100.41c.71-8.12,1.69-8.05,4.66-7.77h0c3.75.36,4.01-.33,3.24,8.53l-8.76,100.41c-.77,8.82-2.48,7.98-4.66,7.78h0Z"/><path class="cls-30" d="M473.15,762c0,9.5-3.25,12-7.26,12h-11.49c-4.01,0-7.26-2-7.26-12v-145c0-10,3.25-12,7.26-12h11.49c4.01,0,7.26,1,7.26,12v145Z"/><path class="cls-6" d="M459.96,645.67c-2.98,0-3.97-.93-3.97-2.09v-25.69c0-1.15,1.78-2.09,3.97-2.09h0c2.19,0,3.97.93,3.97,2.09v25.69c0,1.15-.2,2.09-3.97,2.09h0Z"/><path class="cls-12" d="M459.96,767.66c-2.19,0-3.97,0-3.97-8.19v-100.83c0-8.15.99-8.18,3.97-8.18h0c3.77,0,3.97-.72,3.97,8.18v100.83c0,8.86-1.78,8.19-3.97,8.19h0Z"/><path class="cls-30" d="M621.41,382.61c0,8.77-3.25,11.07-7.26,11.07h-11.49c-4.01,0-7.26-1.85-7.26-11.07v-133.8c0-9.23,3.25-11.07,7.26-11.07h11.49c4.01,0,7.26.92,7.26,11.07v133.8Z"/><path class="cls-6" d="M608.21,275.27c-2.98,0-3.97-.86-3.97-1.93v-23.71c0-1.06,1.78-1.92,3.97-1.92h0c2.19,0,3.97.86,3.97,1.92v23.71c0,1.06-.2,1.93-3.97,1.93h0Z"/><path class="cls-12" d="M608.21,387.84c-2.19,0-3.97,0-3.97-7.56v-93.03c0-7.52.99-7.55,3.97-7.55h0c3.77,0,3.97-.66,3.97,7.55v93.03c0,8.18-1.78,7.56-3.97,7.56h0Z"/><path class="cls-30" d="M106.25,197.36c.6,9.48-2.48,12.2-6.48,12.48l-11.46.8c-4,.28-7.37-1.49-8-11.47l-9.16-144.68c-.63-9.98,2.48-12.2,6.48-12.48l11.46-.8c4-.28,7.3.49,8,11.47l9.16,144.68Z"/><path class="cls-6" d="M85.73,82.21c-2.98.21-4.02-.66-4.09-1.81l-1.62-25.64c-.07-1.15,1.64-2.2,3.83-2.36h0c2.19-.15,4.02.66,4.09,1.8l1.62,25.64c.07,1.15-.07,2.1-3.83,2.36h0Z"/><path class="cls-12" d="M93.44,203.93c-2.19.15-3.96.28-4.48-7.89l-6.37-100.6c-.51-8.13.47-8.23,3.44-8.44h0c3.76-.26,3.91-.99,4.47,7.89l6.37,100.6c.56,8.84-1.26,8.3-3.44,8.45h0Z"/></g><g id="REDS"><g id="RED_03"><path class="cls-22" d="M598.43,763.04c0,6.05-8.79,10.96-19.63,10.96h-31.08c-10.84,0-19.63-4.91-19.63-10.96v-132.41c0-6.05,8.79-10.96,19.63-10.96h31.08c10.84,0,19.63,4.91,19.63,10.96v132.41Z"/><path class="cls-18" d="M580.72,689.78c0,.77-1.12,1.4-2.5,1.4h-30.78c-1.38,0-2.5-.62-2.5-1.4h0c0-.77,1.12-1.4,2.5-1.4h30.78c1.38,0,2.5.62,2.5,1.4h0Z"/><path class="cls-8" d="M580.72,701.04c0,.77-1.12,1.4-2.5,1.4h-30.78c-1.38,0-2.5-.63-2.5-1.4h0c0-.77,1.12-1.4,2.5-1.4h30.78c1.38,0,2.5.63,2.5,1.4h0Z"/><path class="cls-18" d="M587.37,695.06c0,.98-1.51,1.78-3.37,1.78h-41.51c-1.86,0-3.37-.8-3.37-1.78h0c0-.98,1.51-1.78,3.37-1.78h41.51c1.86,0,3.37.8,3.37,1.78h0Z"/><path class="cls-22" d="M249.75,200.75c0,6.05-8.79,10.96-19.63,10.96h-31.08c-10.84,0-19.63-4.91-19.63-10.96V68.34c0-6.05,8.79-10.96,19.63-10.96h31.08c10.84,0,19.63,4.91,19.63,10.96v132.41Z"/><path class="cls-18" d="M232.04,127.49c0,.77-1.12,1.4-2.5,1.4h-30.78c-1.38,0-2.5-.62-2.5-1.4h0c0-.77,1.12-1.4,2.5-1.4h30.78c1.38,0,2.5.62,2.5,1.4h0Z"/><path class="cls-8" d="M232.04,138.75c0,.77-1.12,1.4-2.5,1.4h-30.78c-1.38,0-2.5-.63-2.5-1.4h0c0-.77,1.12-1.4,2.5-1.4h30.78c1.38,0,2.5.63,2.5,1.4h0Z"/><path class="cls-18" d="M238.69,132.76c0,.98-1.51,1.78-3.37,1.78h-41.51c-1.86,0-3.37-.8-3.37-1.78h0c0-.98,1.51-1.78,3.37-1.78h41.51c1.86,0,3.37.8,3.37,1.78h0Z"/></g><g id="REDS_02"><path class="cls-27" d="M203.87,549.41c0,5.02-6.88,9.09-15.37,9.09h-24.34c-8.49,0-15.37-4.07-15.37-9.09v-109.82c0-5.02,6.88-9.09,15.37-9.09h24.34c8.49,0,15.37,4.07,15.37,9.09v109.82Z"/><rect class="cls-16" x="156.84" y="442.56" width="37.96" height="2.85"/><rect class="cls-16" x="161.67" y="542.25" width="28.3" height="2.12"/><rect class="cls-16" x="165.21" y="547.18" width="21.23" height="1.59"/><rect class="cls-16" x="157.42" y="448.7" width="3.66" height="4.56"/><rect class="cls-16" x="168.35" y="448.7" width="3.66" height="4.56"/><rect class="cls-16" x="179.93" y="448.7" width="3.66" height="4.56"/><rect class="cls-16" x="174.02" y="535.06" width="3.66" height="4.56"/><rect class="cls-16" x="190.67" y="448.7" width="3.66" height="4.56"/><path class="cls-27" d="M259.53,549.41c0,5.02-6.88,9.09-15.37,9.09h-24.34c-8.49,0-15.37-4.07-15.37-9.09v-109.82c0-5.02,6.88-9.09,15.37-9.09h24.34c8.49,0,15.37,4.07,15.37,9.09v109.82Z"/><rect class="cls-16" x="212.5" y="442.56" width="37.96" height="2.85"/><rect class="cls-16" x="217.33" y="542.25" width="28.3" height="2.12"/><rect class="cls-16" x="220.86" y="547.18" width="21.23" height="1.59"/><rect class="cls-16" x="213.08" y="448.7" width="3.66" height="4.56"/><rect class="cls-16" x="224.01" y="448.7" width="3.66" height="4.56"/><rect class="cls-16" x="235.59" y="448.7" width="3.66" height="4.56"/><rect class="cls-16" x="229.67" y="535.06" width="3.66" height="4.56"/><rect class="cls-16" x="246.33" y="448.7" width="3.66" height="4.56"/><path class="cls-27" d="M315.25,549.41c0,5.02-6.88,9.09-15.37,9.09h-24.34c-8.49,0-15.37-4.07-15.37-9.09v-109.82c0-5.02,6.88-9.09,15.37-9.09h24.34c8.49,0,15.37,4.07,15.37,9.09v109.82Z"/><rect class="cls-16" x="268.22" y="442.56" width="37.96" height="2.85"/><rect class="cls-16" x="273.05" y="542.25" width="28.3" height="2.12"/><rect class="cls-16" x="276.59" y="547.18" width="21.23" height="1.59"/><rect class="cls-16" x="268.8" y="448.7" width="3.66" height="4.56"/><rect class="cls-16" x="279.73" y="448.7" width="3.66" height="4.56"/><rect class="cls-16" x="291.31" y="448.7" width="3.66" height="4.56"/><rect class="cls-16" x="285.4" y="535.06" width="3.66" height="4.56"/><rect class="cls-16" x="302.05" y="448.7" width="3.66" height="4.56"/><path class="cls-27" d="M324.32,557.46c-4.78,0-8.66-7.23-8.66-16.14v-25.56c0-8.92,3.87-16.14,8.66-16.14h104.57c4.78,0,8.66,7.23,8.66,16.14v25.56c0,8.91-3.88,16.14-8.66,16.14h-104.57Z"/><rect class="cls-16" x="423.35" y="508.07" width="2.71" height="39.87"/><rect class="cls-16" x="329.11" y="513.15" width="2.02" height="29.72"/><rect class="cls-16" x="324.92" y="516.86" width="1.52" height="22.29"/><rect class="cls-16" x="415.87" y="508.68" width="4.34" height="3.84"/><rect class="cls-16" x="415.87" y="520.16" width="4.34" height="3.84"/><rect class="cls-16" x="415.87" y="532.33" width="4.34" height="3.84"/><rect class="cls-16" x="333.65" y="526.11" width="4.34" height="3.84"/><rect class="cls-16" x="415.87" y="543.6" width="4.34" height="3.84"/><path class="cls-27" d="M614.74,202.41c0,5.02-6.88,9.09-15.37,9.09h-24.34c-8.49,0-15.37-4.07-15.37-9.09v-109.82c0-5.02,6.88-9.09,15.37-9.09h24.34c8.49,0,15.37,4.07,15.37,9.09v109.82Z"/><rect class="cls-16" x="567.71" y="95.56" width="37.96" height="2.85"/><rect class="cls-16" x="572.54" y="195.25" width="28.3" height="2.12"/><rect class="cls-16" x="576.08" y="200.18" width="21.23" height="1.59"/><rect class="cls-16" x="568.29" y="101.7" width="3.66" height="4.56"/><rect class="cls-16" x="579.22" y="101.7" width="3.66" height="4.56"/><rect class="cls-16" x="590.8" y="101.7" width="3.66" height="4.56"/><rect class="cls-16" x="584.89" y="188.06" width="3.66" height="4.56"/><rect class="cls-16" x="601.54" y="101.7" width="3.66" height="4.56"/><path class="cls-27" d="M670.69,202.41c0,5.02-6.88,9.09-15.37,9.09h-24.34c-8.49,0-15.37-4.07-15.37-9.09v-109.82c0-5.02,6.88-9.09,15.37-9.09h24.34c8.49,0,15.37,4.07,15.37,9.09v109.82Z"/><rect class="cls-16" x="623.66" y="95.56" width="37.96" height="2.85"/><rect class="cls-16" x="628.49" y="195.25" width="28.3" height="2.12"/><rect class="cls-16" x="632.03" y="200.18" width="21.23" height="1.59"/><rect class="cls-16" x="624.24" y="101.7" width="3.66" height="4.56"/><rect class="cls-16" x="635.16" y="101.7" width="3.66" height="4.56"/><rect class="cls-16" x="646.75" y="101.7" width="3.66" height="4.56"/><rect class="cls-16" x="640.83" y="188.06" width="3.66" height="4.56"/><rect class="cls-16" x="657.49" y="101.7" width="3.66" height="4.56"/><path class="cls-27" d="M78.02,764.92c0,5.02-6.22,9.09-13.89,9.09h-21.99c-7.67,0-13.89-4.07-13.89-9.09v-109.82c0-5.02,6.22-9.09,13.89-9.09h21.99c7.67,0,13.89,4.07,13.89,9.09v109.82Z"/><rect class="cls-16" x="35.53" y="658.07" width="34.3" height="2.85"/><rect class="cls-16" x="39.9" y="757.76" width="25.57" height="2.12"/><rect class="cls-16" x="43.09" y="762.7" width="19.18" height="1.59"/><rect class="cls-16" x="36.06" y="664.21" width="3.31" height="4.56"/><rect class="cls-16" x="45.93" y="664.21" width="3.31" height="4.56"/><rect class="cls-16" x="56.4" y="664.21" width="3.31" height="4.56"/><rect class="cls-16" x="51.05" y="750.57" width="3.31" height="4.56"/><rect class="cls-16" x="66.1" y="664.21" width="3.31" height="4.56"/></g><g id="REDS_01"><path class="cls-23" d="M362.1,763.03c0,6.06-6.12,10.97-13.67,10.97h-21.65c-7.55,0-13.67-4.91-13.67-10.97v-132.56c0-6.06,6.12-10.97,13.67-10.97h21.65c7.55,0,13.67,4.91,13.67,10.97v132.56Z"/><path class="cls-17" d="M337.63,683.38c-3.11,0-4.14-1.61-4.14-3.59v-44.21c0-1.98,1.85-3.59,4.14-3.59h0c2.28,0,4.13,1.61,4.13,3.59v44.21c0,1.98-.21,3.59-4.13,3.59h0Z"/><path class="cls-17" d="M337.63,707.67c-3.11,0-4.14-.54-4.14-1.21v-14.85c0-.67,1.85-1.2,4.14-1.2h0c2.28,0,4.13.54,4.13,1.2v14.85c0,.67-.21,1.21-4.13,1.21h0Z"/><path class="cls-1" d="M337.63,762.97c-3.11,0-4.14-1.16-4.14-2.61v-32.1c0-1.44,1.85-2.6,4.14-2.6h0c2.28,0,4.13,1.17,4.13,2.6v32.1c0,1.44-.21,2.61-4.13,2.61h0Z"/><path class="cls-23" d="M558.29,200.56c0,6.06-6.12,10.97-13.68,10.97h-21.65c-7.55,0-13.67-4.91-13.67-10.97V68c0-6.06,6.12-10.97,13.67-10.97h21.65c7.55,0,13.68,4.91,13.68,10.97v132.56Z"/><path class="cls-17" d="M533.82,120.91c-3.11,0-4.14-1.61-4.14-3.59v-44.21c0-1.98,1.85-3.59,4.14-3.59h0c2.28,0,4.14,1.61,4.14,3.59v44.21c0,1.98-.21,3.59-4.14,3.59h0Z"/><path class="cls-17" d="M533.82,145.19c-3.11,0-4.14-.54-4.14-1.2v-14.85c0-.66,1.85-1.2,4.14-1.2h0c2.28,0,4.14.54,4.14,1.2v14.85c0,.67-.21,1.2-4.14,1.2h0Z"/><path class="cls-1" d="M533.82,200.5c-3.11,0-4.14-1.16-4.14-2.61v-32.1c0-1.44,1.85-2.6,4.14-2.6h0c2.28,0,4.13,1.17,4.13,2.6v32.1c0,1.44-.21,2.61-4.13,2.61h0Z"/></g><g id="REDS_00"><path class="cls-23" d="M468.02,393.78c-5.32,0-9.64-7.09-9.64-15.83v-25.06c0-8.74,4.31-15.82,9.64-15.82h116.42c5.32,0,9.64,7.09,9.64,15.82v25.06c0,8.74-4.32,15.83-9.64,15.83h-116.42Z"/><path class="cls-3" d="M468.38,364.94c0-3.6.36-4.79.8-4.79h9.83c.44,0,.8,2.14.8,4.79h0c0,2.64-.36,4.78-.8,4.78h-9.83c-.44,0-.8-.24-.8-4.78h0Z"/><path class="cls-3" d="M557.79,364.83c0-8.39.83-11.17,1.86-11.17h22.94c1.03,0,1.86,5,1.86,11.17h0c0,6.16-.83,11.16-1.86,11.16h-22.94c-1.03,0-1.86-.56-1.86-11.16h0Z"/></g></g><g id="BROWN"><path class="cls-32" d="M268.75,383.46c0,5.76-4.54,10.44-10.13,10.44h-16.04c-5.59,0-10.13-4.67-10.13-10.44v-126.12c0-5.77,4.54-10.44,10.13-10.44h16.04c5.59,0,10.13,4.67,10.13,10.44v126.12Z"/><path class="cls-8" d="M265.15,260.91c0,1.17-.92,2.13-2.06,2.13h-25.42c-1.14,0-2.06-.95-2.06-2.13h0c0-1.17.92-2.13,2.06-2.13h25.42c1.14,0,2.06.95,2.06,2.13h0Z"/><path class="cls-5" d="M259.61,386.17c0,.73-.58,1.33-1.29,1.33h-15.89c-.71,0-1.29-.6-1.29-1.33h0c0-.73.58-1.33,1.29-1.33h15.89c.71,0,1.29.6,1.29,1.33h0Z"/><path class="cls-8" d="M259.61,380.95c0,.73-.58,1.33-1.29,1.33h-15.89c-.71,0-1.29-.6-1.29-1.33h0c0-.73.58-1.33,1.29-1.33h15.89c.71,0,1.29.6,1.29,1.33h0Z"/><path class="cls-5" d="M265.15,267.29c0,.72-.92,1.3-2.06,1.3h-25.42c-1.14,0-2.06-.58-2.06-1.3h0c0-.72.92-1.3,2.06-1.3h25.42c1.14,0,2.06.58,2.06,1.3h0Z"/><path class="cls-32" d="M305.26,383.46c0,5.76-4.54,10.44-10.13,10.44h-16.04c-5.59,0-10.13-4.67-10.13-10.44v-126.12c0-5.77,4.54-10.44,10.13-10.44h16.04c5.59,0,10.13,4.67,10.13,10.44v126.12Z"/><path class="cls-8" d="M301.66,260.91c0,1.17-.92,2.13-2.06,2.13h-25.42c-1.14,0-2.06-.95-2.06-2.13h0c0-1.17.92-2.13,2.06-2.13h25.42c1.14,0,2.06.95,2.06,2.13h0Z"/><path class="cls-5" d="M296.12,386.17c0,.73-.58,1.33-1.29,1.33h-15.89c-.71,0-1.29-.6-1.29-1.33h0c0-.73.58-1.33,1.29-1.33h15.89c.71,0,1.29.6,1.29,1.33h0Z"/><path class="cls-8" d="M296.12,380.95c0,.73-.58,1.33-1.29,1.33h-15.89c-.71,0-1.29-.6-1.29-1.33h0c0-.73.58-1.33,1.29-1.33h15.89c.71,0,1.29.6,1.29,1.33h0Z"/><path class="cls-5" d="M301.66,267.29c0,.72-.92,1.3-2.06,1.3h-25.42c-1.14,0-2.06-.58-2.06-1.3h0c0-.72.92-1.3,2.06-1.3h25.42c1.14,0,2.06.58,2.06,1.3h0Z"/><path class="cls-32" d="M142.66,764.16c0,5.76-4.54,10.44-10.13,10.44h-16.04c-5.59,0-10.13-4.67-10.13-10.44v-126.12c0-5.77,4.54-10.44,10.13-10.44h16.04c5.59,0,10.13,4.67,10.13,10.44v126.12Z"/><path class="cls-8" d="M139.06,641.62c0,1.17-.92,2.13-2.06,2.13h-25.42c-1.14,0-2.06-.95-2.06-2.13h0c0-1.17.92-2.13,2.06-2.13h25.42c1.14,0,2.06.95,2.06,2.13h0Z"/><path class="cls-5" d="M133.52,766.87c0,.73-.58,1.33-1.29,1.33h-15.89c-.71,0-1.29-.6-1.29-1.33h0c0-.73.58-1.33,1.29-1.33h15.89c.71,0,1.29.6,1.29,1.33h0Z"/><path class="cls-8" d="M133.52,761.65c0,.73-.58,1.33-1.29,1.33h-15.89c-.71,0-1.29-.6-1.29-1.33h0c0-.73.58-1.33,1.29-1.33h15.89c.71,0,1.29.6,1.29,1.33h0Z"/><path class="cls-5" d="M139.06,647.99c0,.71-.92,1.29-2.06,1.29h-25.42c-1.14,0-2.06-.58-2.06-1.29h0c0-.72.92-1.3,2.06-1.3h25.42c1.14,0,2.06.58,2.06,1.3h0Z"/><path class="cls-32" d="M377.66,375.23c1.66,5.5-1.33,11.39-6.66,13.16l-15.29,5.08c-5.33,1.77-11-1.25-12.66-6.75l-36.21-120.25c-1.66-5.5,1.33-11.39,6.66-13.16l15.29-5.08c5.33-1.77,11,1.25,12.65,6.75l36.21,120.25Z"/><path class="cls-8" d="M339.05,259.52c.34,1.12-.27,2.32-1.36,2.68l-24.23,8.05c-1.09.36-2.24-.25-2.58-1.37h0c-.34-1.12.27-2.32,1.36-2.68l24.23-8.05c1.09-.36,2.24.26,2.58,1.38h0Z"/><path class="cls-5" d="M369.72,380.7c.21.7-.17,1.45-.85,1.68l-15.15,5.03c-.68.23-1.4-.16-1.61-.86h0c-.21-.7.17-1.45.85-1.68l15.15-5.03c.68-.23,1.4.16,1.61.86h0Z"/><path class="cls-8" d="M368.22,375.73c.21.7-.17,1.45-.85,1.68l-15.15,5.03c-.68.23-1.4-.16-1.61-.86h0c-.21-.7.17-1.45.85-1.68l15.15-5.03c.68-.23,1.4.16,1.61.86h0Z"/><path class="cls-5" d="M340.88,265.61c.21.68-.51,1.53-1.6,1.89l-24.23,8.05c-1.09.36-2.13.1-2.34-.58h0c-.21-.68.51-1.53,1.59-1.89l24.23-8.05c1.09-.36,2.13-.1,2.34.58h0Z"/></g><g id="BLUE"><g id="BLUES_02"><path class="cls-28" d="M69.46,552.06c-1.22,4.18-5.21,6.6-8.91,5.41l-10.61-3.42c-3.7-1.19-5.71-5.55-4.49-9.73l26.74-91.45c1.22-4.18,5.21-6.6,8.91-5.41l10.61,3.42c3.7,1.19,5.71,5.55,4.49,9.73l-26.74,91.45Z"/><path class="cls-7" d="M88.44,457.57s-3.51,12.85-3.63,12.43l-8.25-2.66,3.63-12.43,8.25,2.66Z"/><path class="cls-13" d="M83.79,473.5s-3.51,12.85-3.63,12.43l-8.25-2.66,3.63-12.43,8.25,2.66Z"/><path class="cls-21" d="M122.76,549.85c0,4.37-3.14,7.92-7.01,7.92h-11.1c-3.87,0-7.01-3.55-7.01-7.92v-95.67c0-4.37,3.14-7.92,7.01-7.92h11.1c3.87,0,7.01,3.54,7.01,7.92v95.67Z"/><path class="cls-7" d="M114.49,453.67s.24,13.37,0,13h-8.63v-13h8.63Z"/><path class="cls-6" d="M114.49,470.33s.24,13.37,0,13h-8.63v-13h8.63Z"/></g><g id="BLUES_01"><path class="cls-28" d="M269.1,764.53c0,4.86-5.37,8.8-12,8.8h-19c-6.63,0-12-3.94-12-8.8v-106.39c0-4.86,5.37-8.8,12-8.8h19c6.63,0,12,3.94,12,8.8v106.39Z"/><path class="cls-13" d="M253.99,755.36c1.08,0,1.96,1.19,1.96,2.67h0c0,1.48-.87,2.67-1.96,2.67h-12.86c-1.08,0-1.96-1.19-1.96-2.67h0c0-1.47.88-2.67,1.96-2.67h12.86Z"/><path class="cls-13" d="M253.99,657.36c1.08,0,1.96,1.19,1.96,2.67h0c0,1.47-.87,2.67-1.96,2.67h-12.86c-1.08,0-1.96-1.19-1.96-2.67h0c0-1.47.88-2.67,1.96-2.67h12.86Z"/><path class="cls-13" d="M253.99,763.11c1.08,0,1.96,1.19,1.96,2.67h0c0,1.47-.87,2.67-1.96,2.67h-12.86c-1.08,0-1.96-1.19-1.96-2.67h0c0-1.47.88-2.67,1.96-2.67h12.86Z"/><path class="cls-9" d="M254.95,667.95v42.17c0,23.3.4,42.59,0,42.18h-14.78v-84.35h14.78Z"/><path class="cls-28" d="M225.5,764.53c0,4.86-5.37,8.8-12,8.8h-19c-6.63,0-12-3.94-12-8.8v-106.39c0-4.86,5.37-8.8,12-8.8h19c6.63,0,12,3.94,12,8.8v106.39Z"/><path class="cls-13" d="M210.39,755.36c1.08,0,1.96,1.19,1.96,2.67h0c0,1.48-.87,2.67-1.96,2.67h-12.86c-1.08,0-1.96-1.19-1.96-2.67h0c0-1.47.88-2.67,1.96-2.67h12.86Z"/><path class="cls-13" d="M210.39,657.36c1.08,0,1.96,1.19,1.96,2.67h0c0,1.47-.87,2.67-1.96,2.67h-12.86c-1.08,0-1.96-1.19-1.96-2.67h0c0-1.47.88-2.67,1.96-2.67h12.86Z"/><path class="cls-13" d="M210.39,763.11c1.08,0,1.96,1.19,1.96,2.67h0c0,1.47-.87,2.67-1.96,2.67h-12.86c-1.08,0-1.96-1.19-1.96-2.67h0c0-1.47.88-2.67,1.96-2.67h12.86Z"/><path class="cls-9" d="M211.35,667.95v42.17c0,23.3.4,42.59,0,42.18h-14.78v-84.35h14.78Z"/></g></g><g id="YELLOW"><g id="YELLOW_03"><path class="cls-20" d="M404.32,386.35c0,4.1-3.14,7.42-7.01,7.42h-11.1c-3.87,0-7.01-3.32-7.01-7.42v-89.66c0-4.1,3.14-7.42,7.01-7.42h11.1c3.87,0,7.01,3.32,7.01,7.42v89.66Z"/><rect class="cls-4" x="389.11" y="362.75" width="5.29" height="19.25"/><rect class="cls-4" x="389.11" y="353.67" width="5.29" height="7.4"/><rect class="cls-4" x="389.11" y="303.25" width="5.29" height="7.4"/><rect class="cls-4" x="389.11" y="313.06" width="5.29" height="38.64"/><path class="cls-20" d="M588.62,254.91c3.9,0,7.07,3.28,7.08,7.35l.02,11.66c0,4.07-3.15,7.37-7.05,7.38l-85.37.19c-3.9,0-7.07-3.28-7.08-7.35l-.02-11.66c0-4.06,3.15-7.37,7.05-7.38l85.37-.19Z"/><rect class="cls-4" x="566.17" y="265.36" width="18.33" height="5.56" transform="translate(-.57 1.23) rotate(-.12)"/><rect class="cls-4" x="557.53" y="265.39" width="7.04" height="5.56" transform="translate(-.54 1.13) rotate(-.12)"/><rect class="cls-4" x="509.52" y="265.49" width="7.04" height="5.56" transform="translate(-.58 1.11) rotate(-.12)"/><rect class="cls-4" x="518.86" y="265.44" width="36.79" height="5.56" transform="translate(-.58 1.17) rotate(-.12)"/><path class="cls-20" d="M148.26,550.35c0,4.1-3.14,7.42-7.01,7.42h-11.1c-3.87,0-7.01-3.32-7.01-7.42v-89.66c0-4.1,3.14-7.42,7.01-7.42h11.1c3.87,0,7.01,3.32,7.01,7.42v89.66Z"/><rect class="cls-4" x="133.05" y="526.74" width="5.29" height="19.25"/><rect class="cls-4" x="133.05" y="517.67" width="5.29" height="7.4"/><rect class="cls-4" x="133.05" y="467.25" width="5.29" height="7.4"/><rect class="cls-4" x="133.05" y="477.06" width="5.29" height="38.64"/></g><g id="YELLOWS_02"><path class="cls-31" d="M536.21,499.62c-3.9,0-7.07-3.3-7.07-7.36v-11.66c0-4.07,3.16-7.36,7.07-7.36h85.37c3.9,0,7.07,3.3,7.07,7.36v11.66c0,4.07-3.16,7.36-7.07,7.36h-85.37Z"/><rect class="cls-2" x="602.82" y="479.34" width="17.97" height="14.18"/><path class="cls-31" d="M747.21,522.67c0,4.1-3.14,7.42-7.01,7.42h-11.1c-3.87,0-7.01-3.32-7.01-7.42v-89.66c0-4.1,3.14-7.42,7.01-7.42h11.1c3.87,0,7.01,3.32,7.01,7.42v89.66Z"/><rect class="cls-2" x="727.89" y="433.83" width="13.51" height="18.88"/><path class="cls-31" d="M697.05,149.89c0,4.1-3.14,7.42-7.01,7.42h-11.1c-3.87,0-7.01-3.32-7.01-7.42V60.23c0-4.1,3.14-7.42,7.01-7.42h11.1c3.87,0,7.01,3.32,7.01,7.42v89.66Z"/><rect class="cls-2" x="677.73" y="61.05" width="13.51" height="18.88"/><path class="cls-31" d="M722.56,149.89c0,4.1-3.14,7.42-7.01,7.42h-11.1c-3.87,0-7.01-3.32-7.01-7.42V60.23c0-4.1,3.14-7.42,7.01-7.42h11.1c3.87,0,7.01,3.32,7.01,7.42v89.66Z"/><rect class="cls-2" x="703.24" y="61.05" width="13.51" height="18.88"/><path class="cls-31" d="M748.69,151.79c-1.1,3.93-5,6.19-8.72,5.04l-10.65-3.29c-3.72-1.15-5.83-5.26-4.74-9.2l24.07-86.02c1.1-3.93,5-6.19,8.72-5.04l10.65,3.29c3.72,1.15,5.83,5.26,4.73,9.2l-24.07,86.02Z"/><polygon class="cls-2" points="766.96 64.84 761.9 82.95 748.94 78.95 754.01 60.84 766.96 64.84"/><path class="cls-31" d="M772.98,522.67c0,4.1-3.14,7.42-7.01,7.42h-11.1c-3.87,0-7.01-3.32-7.01-7.42v-89.66c0-4.1,3.14-7.42,7.01-7.42h11.1c3.87,0,7.01,3.32,7.01,7.42v89.66Z"/><rect class="cls-2" x="753.66" y="433.83" width="13.51" height="18.88"/></g><g id="YELLOW_01"><path class="cls-19" d="M156.8,381.63c0,8.62-3.17,10.89-7.09,10.89h-11.22c-3.91,0-7.09-1.81-7.09-10.89v-131.59c0-9.08,3.17-10.89,7.09-10.89h11.22c3.91,0,7.09.91,7.09,10.89v131.59Z"/><path class="cls-16" d="M143.64,363.78c-2.68,0-4.85,0-4.85-7.95v-97.86c0-7.91,1.21-7.94,4.85-7.94h0c4.6,0,4.84-.7,4.84,7.94v97.86c0,8.6-2.17,7.95-4.84,7.95h0Z"/><path class="cls-16" d="M143.64,386.78c-2.68,0-4.85,0-4.85-.93v-11.47c0-.93,1.21-.93,4.85-.93h0c4.6,0,4.84-.08,4.84.93v11.47c0,1.01-2.17.93-4.84.93h0Z"/><path class="cls-19" d="M105.03,762c0,9.5-3.17,12-7.09,12h-11.22c-3.91,0-7.09-2-7.09-12v-145c0-10,3.17-12,7.09-12h11.22c3.91,0,7.09,1,7.09,12v145Z"/><path class="cls-16" d="M91.87,742.34c-2.68,0-4.85,0-4.85-8.76v-107.83c0-8.71,1.2-8.75,4.85-8.75h0c4.6,0,4.84-.77,4.84,8.75v107.83c0,9.47-2.17,8.76-4.84,8.76h0Z"/><path class="cls-16" d="M91.87,767.68c-2.68,0-4.85,0-4.85-1.03v-12.64c0-1.02,1.2-1.02,4.85-1.02h0c4.6,0,4.84-.09,4.84,1.02v12.64c0,1.11-2.17,1.03-4.84,1.03h0Z"/></g><path class="cls-20" d="M766.25,531.75c3.9,0,7.07,3.28,7.08,7.35l.02,11.66c0,4.07-3.15,7.37-7.05,7.38l-85.37.19c-3.9,0-7.07-3.28-7.08-7.35l-.02-11.66c0-4.06,3.15-7.37,7.05-7.38l85.37-.19Z"/><rect class="cls-4" x="743.81" y="542.2" width="18.33" height="5.56" transform="translate(-1.16 1.61) rotate(-.12)"/><rect class="cls-4" x="735.16" y="542.23" width="7.04" height="5.56" transform="translate(-1.1 1.49) rotate(-.12)"/><rect class="cls-4" x="687.16" y="542.33" width="7.04" height="5.56" transform="translate(-1.18 1.5) rotate(-.12)"/><rect class="cls-4" x="696.5" y="542.28" width="36.79" height="5.56" transform="translate(-1.19 1.57) rotate(-.13)"/></g><g id="BLACK"><g id="LITTLE_BLACK"><path class="cls-25" d="M293.44,764.3c.26,4.66-1.7,8.58-4.38,8.74l-7.67.47c-2.68.16-5.05-3.48-5.31-8.15l-5.65-102.01c-.26-4.66,1.7-8.57,4.38-8.74l7.67-.47c2.68-.16,5.06,3.48,5.31,8.14l5.65,102.01Z"/><path class="cls-7" d="M283.2,660.78s.86,11.28.61,10.98l-8.62.53-.61-10.99,8.62-.53Z"/><path class="cls-16" d="M288.89,763.44s.5,4.78.26,4.66l-8.62.53-.26-4.66,8.62-.53Z"/><path class="cls-25" d="M312.54,764.92c0,4.67-2.17,8.46-4.85,8.46h-7.69c-2.68,0-4.85-3.79-4.85-8.46v-102.18c0-4.67,2.17-8.46,4.85-8.46h7.69c2.68,0,4.85,3.79,4.85,8.46v102.18Z"/><path class="cls-7" d="M308.05,660.94s.24,11.32,0,11h-8.63v-11h8.63Z"/><path class="cls-16" d="M308.05,763.78s.24,4.8,0,4.67h-8.63v-4.67h8.63Z"/><path class="cls-25" d="M523.15,519.45c-4.45,0-8.05-2.28-8.05-5.1v-8.07c0-2.82,3.61-5.1,8.05-5.1h97.3c4.44,0,8.05,2.28,8.05,5.1v8.07c0,2.82-3.61,5.1-8.05,5.1h-97.3Z"/><path class="cls-7" d="M622.15,514.73s-10.77.25-10.48,0v-9.07h10.48v9.07Z"/><path class="cls-16" d="M524.23,514.73s-4.57.25-4.44,0v-9.07h4.44v9.07Z"/><path class="cls-25" d="M523.15,538.43c-4.45,0-8.05-2.28-8.05-5.1v-8.07c0-2.81,3.61-5.1,8.05-5.1h97.3c4.44,0,8.05,2.28,8.05,5.1v8.07c0,2.82-3.61,5.1-8.05,5.1h-97.3Z"/><path class="cls-7" d="M622.15,533.71s-10.77.25-10.48,0v-9.07h10.48v9.07Z"/><path class="cls-16" d="M524.23,533.71s-4.57.25-4.44,0v-9.07h4.44v9.07Z"/><path class="cls-25" d="M523.15,557.3c-4.45,0-8.05-2.28-8.05-5.1v-8.07c0-2.82,3.61-5.1,8.05-5.1h97.3c4.44,0,8.05,2.28,8.05,5.1v8.07c0,2.82-3.61,5.1-8.05,5.1h-97.3Z"/><path class="cls-7" d="M622.15,552.58s-10.77.25-10.48,0v-9.07h10.48v9.07Z"/><path class="cls-16" d="M524.23,552.58s-4.57.25-4.44,0v-9.07h4.44v9.07Z"/><path class="cls-25" d="M638.11,385.31c0,4.67-2.01,8.46-4.49,8.46h-7.11c-2.48,0-4.49-3.79-4.49-8.46v-102.19c0-4.67,2.01-8.46,4.49-8.46h7.11c2.48,0,4.49,3.79,4.49,8.46v102.19Z"/><path class="cls-7" d="M633.95,281.34s.22,11.31,0,11h-7.99v-11h7.99Z"/><path class="cls-16" d="M633.95,384.17s.22,4.8,0,4.67h-7.99v-4.67h7.99Z"/><path class="cls-25" d="M654.73,385.31c0,4.67-2.01,8.46-4.49,8.46h-7.11c-2.48,0-4.49-3.79-4.49-8.46v-102.19c0-4.67,2.01-8.46,4.49-8.46h7.11c2.48,0,4.49,3.79,4.49,8.46v102.19Z"/><path class="cls-7" d="M650.57,281.34s.22,11.31,0,11h-7.99v-11h7.99Z"/><path class="cls-16" d="M650.57,384.17s.22,4.8,0,4.67h-7.99v-4.67h7.99Z"/><path class="cls-25" d="M671.45,385.31c0,4.67-2.01,8.46-4.49,8.46h-7.11c-2.48,0-4.49-3.79-4.49-8.46v-102.19c0-4.67,2.01-8.46,4.49-8.46h7.11c2.48,0,4.49,3.79,4.49,8.46v102.19Z"/><path class="cls-7" d="M667.29,281.34s.22,11.31,0,11h-7.99v-11h7.99Z"/><path class="cls-16" d="M667.29,384.17s.22,4.8,0,4.67h-7.99v-4.67h7.99Z"/><path class="cls-25" d="M453.84,521.54c-2.96,3.48-6.86,4.9-8.71,3.16l-5.3-4.98c-1.85-1.74-.95-5.97,2.02-9.45l64.84-76.19c2.96-3.48,6.87-4.9,8.71-3.16l5.3,4.98c1.85,1.74.94,5.97-2.02,9.45l-64.84,76.19Z"/><path class="cls-7" d="M516.72,441.11s-7.02,8.59-6.98,8.2l-5.96-5.59,6.98-8.2,5.96,5.59Z"/><path class="cls-16" d="M451.46,517.79s-2.89,3.73-2.96,3.48l-5.96-5.59,2.96-3.48,5.96,5.59Z"/><path class="cls-25" d="M175.78,384.95c0,4.67-2.17,8.46-4.85,8.46h-7.69c-2.68,0-4.85-3.79-4.85-8.46v-102.19c0-4.67,2.17-8.46,4.85-8.46h7.69c2.68,0,4.85,3.79,4.85,8.46v102.19Z"/><path class="cls-7" d="M171.28,280.98s.23,11.31,0,11h-8.63v-11h8.63Z"/><path class="cls-16" d="M171.28,383.82s.23,4.8,0,4.67h-8.63v-4.67h8.63Z"/><path class="cls-25" d="M193.85,384.95c0,4.67-2.18,8.46-4.85,8.46h-7.69c-2.68,0-4.85-3.79-4.85-8.46v-102.19c0-4.67,2.17-8.46,4.85-8.46h7.69c2.68,0,4.85,3.79,4.85,8.46v102.19Z"/><path class="cls-7" d="M189.35,280.98s.23,11.31,0,11h-8.64v-11h8.64Z"/><path class="cls-16" d="M189.35,383.82s.23,4.8,0,4.67h-8.64v-4.67h8.64Z"/><path class="cls-25" d="M44.85,549.69c0,4.67-2.18,8.46-4.85,8.46h-7.69c-2.68,0-4.85-3.78-4.85-8.46v-102.19c0-4.67,2.17-8.46,4.85-8.46h7.69c2.68,0,4.85,3.79,4.85,8.46v102.19Z"/><path class="cls-7" d="M40.36,445.72s.23,11.31,0,11h-8.64v-11h8.64Z"/><path class="cls-16" d="M40.36,548.55s.23,4.8,0,4.67h-8.64v-4.67h8.64Z"/><path class="cls-25" d="M176.59,202.69c-.06,4.67-2.28,8.43-4.95,8.39l-7.69-.1c-2.68-.04-4.81-3.85-4.75-8.52l1.22-102.18c.06-4.67,2.27-8.43,4.95-8.39l7.69.1c2.68.03,4.81,3.85,4.75,8.52l-1.22,102.18Z"/><path class="cls-7" d="M173.33,98.67s.1,11.31-.13,11l-8.64-.11.13-11,8.64.11Z"/><path class="cls-16" d="M172.1,201.5s.18,4.8-.06,4.67l-8.64-.11.06-4.67,8.63.11Z"/><path class="cls-25" d="M212.34,386.32c-.82,4.59-3.62,7.89-6.25,7.37l-7.56-1.49c-2.63-.52-4.11-4.66-3.29-9.25l17.91-100.44c.82-4.59,3.62-7.89,6.25-7.37l7.56,1.49c2.63.52,4.11,4.66,3.29,9.25l-17.91,100.44Z"/><path class="cls-7" d="M226.14,283.25s-1.75,11.16-1.93,10.81l-8.49-1.67,1.93-10.81,8.49,1.67Z"/><path class="cls-16" d="M208.12,384.33s-.61,4.76-.82,4.59l-8.49-1.67.82-4.59,8.49,1.67Z"/></g><g id="BIG_BLACK"><path class="cls-25" d="M612.1,605h19c6.62,0,12,5.38,12,12v145c0,6.62-5.38,12-12,12h-19c-6.62,0-12-5.38-12-12v-145c0-6.62,5.38-12,12-12Z"/><path class="cls-8" d="M638.83,621.11c0,1.35-1.09,2.44-2.45,2.44h-30.11c-1.35,0-2.44-1.1-2.44-2.44h0c0-1.35,1.09-2.45,2.44-2.45h30.11c1.35,0,2.45,1.1,2.45,2.45h0Z"/><path class="cls-8" d="M632.27,759.11c0,.84-.69,1.53-1.53,1.53h-18.82c-.84,0-1.53-.68-1.53-1.53h0c0-.84.68-1.53,1.53-1.53h18.82c.84,0,1.53.68,1.53,1.53h0Z"/><path class="cls-14" d="M638.83,615.44c0,.72-1.09,1.3-2.45,1.3h-30.11c-1.35,0-2.44-.58-2.44-1.3h0c0-.72,1.09-1.3,2.44-1.3h30.11c1.35,0,2.45.58,2.45,1.3h0Z"/><path class="cls-14" d="M638.83,626.55c0,.72-1.09,1.3-2.45,1.3h-30.11c-1.35,0-2.44-.58-2.44-1.3h0c0-.72,1.09-1.3,2.44-1.3h30.11c1.35,0,2.45.58,2.45,1.3h0Z"/><path class="cls-14" d="M638.83,763.22c0,.72-1.09,1.3-2.45,1.3h-30.11c-1.35,0-2.44-.58-2.44-1.3h0c0-.72,1.09-1.3,2.44-1.3h30.11c1.35,0,2.45.58,2.45,1.3h0Z"/><path class="cls-14" d="M623.04,642.3c0,.71-.57,1.28-1.28,1.28h0c-.71,0-1.28-.57-1.28-1.28v-8.43c0-.71.57-1.29,1.28-1.29h0c.71,0,1.28.58,1.28,1.29v8.43Z"/><path class="cls-25" d="M656.1,605h19c6.62,0,12,5.38,12,12v145c0,6.62-5.38,12-12,12h-19c-6.62,0-12-5.38-12-12v-145c0-6.62,5.38-12,12-12Z"/><path class="cls-8" d="M682.5,621.11c0,1.35-1.09,2.44-2.45,2.44h-30.11c-1.35,0-2.44-1.1-2.44-2.44h0c0-1.35,1.09-2.45,2.44-2.45h30.11c1.35,0,2.45,1.1,2.45,2.45h0Z"/><path class="cls-8" d="M675.94,759.11c0,.84-.68,1.53-1.53,1.53h-18.82c-.84,0-1.53-.68-1.53-1.53h0c0-.84.68-1.53,1.53-1.53h18.82c.84,0,1.53.68,1.53,1.53h0Z"/><path class="cls-14" d="M682.5,615.44c0,.72-1.09,1.3-2.45,1.3h-30.11c-1.35,0-2.44-.58-2.44-1.3h0c0-.72,1.09-1.3,2.44-1.3h30.11c1.35,0,2.45.58,2.45,1.3h0Z"/><path class="cls-14" d="M682.5,626.55c0,.72-1.09,1.3-2.45,1.3h-30.11c-1.35,0-2.44-.58-2.44-1.3h0c0-.72,1.09-1.3,2.44-1.3h30.11c1.35,0,2.45.58,2.45,1.3h0Z"/><path class="cls-14" d="M682.5,763.22c0,.72-1.09,1.3-2.45,1.3h-30.11c-1.35,0-2.44-.58-2.44-1.3h0c0-.72,1.09-1.3,2.44-1.3h30.11c1.35,0,2.45.58,2.45,1.3h0Z"/><path class="cls-14" d="M669.09,642.23c0,.71-.57,1.28-1.28,1.28h0c-.71,0-1.28-.58-1.28-1.28v-8.43c0-.71.57-1.28,1.28-1.28h0c.71,0,1.28.58,1.28,1.28v8.43Z"/><path class="cls-14" d="M664.64,642.23c0,.71-.57,1.28-1.28,1.28h0c-.71,0-1.28-.58-1.28-1.28v-8.43c0-.71.58-1.28,1.28-1.28h0c.71,0,1.28.58,1.28,1.28v8.43Z"/><rect class="cls-25" x="688" y="605" width="43" height="169" rx="12" ry="12"/><path class="cls-8" d="M726.5,621.11c0,1.35-1.09,2.44-2.44,2.44h-30.11c-1.35,0-2.44-1.1-2.44-2.44h0c0-1.35,1.09-2.45,2.44-2.45h30.11c1.35,0,2.44,1.1,2.44,2.45h0Z"/><path class="cls-8" d="M719.94,759.11c0,.84-.68,1.53-1.53,1.53h-18.82c-.84,0-1.53-.68-1.53-1.53h0c0-.84.68-1.53,1.53-1.53h18.82c.84,0,1.53.68,1.53,1.53h0Z"/><path class="cls-14" d="M726.5,615.44c0,.72-1.09,1.3-2.44,1.3h-30.11c-1.35,0-2.44-.58-2.44-1.3h0c0-.72,1.09-1.3,2.44-1.3h30.11c1.35,0,2.44.58,2.44,1.3h0Z"/><path class="cls-14" d="M726.5,626.55c0,.72-1.09,1.3-2.44,1.3h-30.11c-1.35,0-2.44-.58-2.44-1.3h0c0-.72,1.09-1.3,2.44-1.3h30.11c1.35,0,2.44.58,2.44,1.3h0Z"/><path class="cls-14" d="M726.5,763.22c0,.72-1.09,1.3-2.44,1.3h-30.11c-1.35,0-2.44-.58-2.44-1.3h0c0-.72,1.09-1.3,2.44-1.3h30.11c1.35,0,2.44.58,2.44,1.3h0Z"/><path class="cls-14" d="M710.91,642.47c0,.71-.57,1.28-1.28,1.28h0c-.71,0-1.28-.57-1.28-1.28v-8.43c0-.71.58-1.28,1.28-1.28h0c.71,0,1.28.58,1.28,1.28v8.43Z"/><path class="cls-14" d="M714.76,642.47c0,.71-.57,1.28-1.28,1.28h0c-.71,0-1.28-.57-1.28-1.28v-8.43c0-.71.57-1.28,1.28-1.28h0c.71,0,1.28.58,1.28,1.28v8.43Z"/><path class="cls-14" d="M707.21,642.47c0,.71-.57,1.28-1.28,1.28h0c-.71,0-1.28-.57-1.28-1.28v-8.43c0-.71.57-1.28,1.28-1.28h0c.71,0,1.28.58,1.28,1.28v8.43Z"/><path class="cls-25" d="M743.7,605h19c6.62,0,12,5.38,12,12v145c0,6.62-5.38,12-12,12h-19c-6.62,0-12-5.38-12-12v-145c0-6.62,5.38-12,12-12Z"/><path class="cls-8" d="M770.2,621.11c0,1.35-1.09,2.44-2.45,2.44h-30.11c-1.35,0-2.44-1.1-2.44-2.44h0c0-1.35,1.09-2.45,2.44-2.45h30.11c1.35,0,2.45,1.1,2.45,2.45h0Z"/><path class="cls-8" d="M763.64,759.11c0,.84-.69,1.53-1.53,1.53h-18.82c-.84,0-1.53-.68-1.53-1.53h0c0-.84.68-1.53,1.53-1.53h18.82c.84,0,1.53.68,1.53,1.53h0Z"/><path class="cls-14" d="M770.2,615.44c0,.72-1.09,1.3-2.45,1.3h-30.11c-1.35,0-2.44-.58-2.44-1.3h0c0-.72,1.09-1.3,2.44-1.3h30.11c1.35,0,2.45.58,2.45,1.3h0Z"/><path class="cls-14" d="M770.2,626.55c0,.72-1.09,1.3-2.45,1.3h-30.11c-1.35,0-2.44-.58-2.44-1.3h0c0-.72,1.09-1.3,2.44-1.3h30.11c1.35,0,2.45.58,2.45,1.3h0Z"/><path class="cls-14" d="M770.2,763.22c0,.72-1.09,1.3-2.45,1.3h-30.11c-1.35,0-2.44-.58-2.44-1.3h0c0-.72,1.09-1.3,2.44-1.3h30.11c1.35,0,2.45.58,2.45,1.3h0Z"/><path class="cls-14" d="M751.9,642.47c0,.71-.57,1.28-1.28,1.28h0c-.71,0-1.28-.57-1.28-1.28v-8.43c0-.71.57-1.28,1.28-1.28h0c.71,0,1.28.58,1.28,1.28v8.43Z"/><path class="cls-14" d="M757.36,642.02c.18.68-.24,1.38-.92,1.56h0c-.69.18-1.39-.24-1.56-.93l-2.09-8.17c-.17-.69.24-1.39.93-1.56h0c.69-.18,1.39.24,1.56.92l2.09,8.17Z"/><path class="cls-14" d="M755.19,642.12c-.17.69.24,1.39.93,1.56h0c.69.18,1.39-.24,1.56-.93l2.09-8.17c.17-.69-.24-1.39-.93-1.56h0c-.69-.18-1.39.24-1.56.92l-2.09,8.17Z"/><path class="cls-25" d="M301.18,197.43c.4,6.61-4.64,12.33-11.25,12.77l-18.96,1.26c-6.61.44-12.3-4.57-12.7-11.18l-8.73-144.71c-.4-6.61,4.64-12.33,11.25-12.77l18.96-1.26c6.61-.44,12.3,4.57,12.7,11.18l8.73,144.71Z"/><path class="cls-8" d="M288.2,57.12c.08,1.35-.94,2.51-2.29,2.6l-30.05,2c-1.35.09-2.5-.93-2.59-2.28h0c-.08-1.35.95-2.51,2.29-2.6l30.05-2c1.35-.09,2.51.93,2.59,2.28h0Z"/><path class="cls-8" d="M289.96,195.28c.05.84-.59,1.57-1.43,1.63l-18.78,1.25c-.84.06-1.57-.58-1.62-1.42h0c-.05-.84.59-1.57,1.43-1.63l18.78-1.25c.84-.06,1.57.58,1.62,1.42h0Z"/><path class="cls-14" d="M287.86,51.45c.04.72-1.01,1.37-2.36,1.46l-30.05,2c-1.35.09-2.47-.42-2.52-1.14h0c-.04-.72,1.01-1.37,2.36-1.46l30.05-2c1.35-.09,2.48.42,2.52,1.13h0Z"/><path class="cls-14" d="M288.53,62.55c.04.72-1.01,1.37-2.36,1.46l-30.05,2c-1.35.09-2.47-.42-2.52-1.13h0c-.04-.72,1.01-1.37,2.36-1.46l30.05-2c1.35-.09,2.48.42,2.52,1.14h0Z"/><path class="cls-14" d="M296.76,198.94c.04.72-1.01,1.37-2.36,1.46l-30.05,2c-1.35.09-2.47-.42-2.52-1.13h0c-.04-.72,1.01-1.37,2.36-1.46l30.05-2c1.35-.09,2.48.42,2.52,1.14h0Z"/><path class="cls-14" d="M271.66,79.17c.22.67-.16,1.4-.83,1.62h0c-.68.22-1.4-.15-1.61-.82l-2.57-8.02c-.22-.67.16-1.4.83-1.62h0c.68-.22,1.4.15,1.61.82l2.58,8.02Z"/><path class="cls-14" d="M269.5,79.41c-.13.7.32,1.37,1.02,1.5h0c.7.13,1.37-.33,1.5-1.03l1.59-8.29c.13-.7-.32-1.37-1.02-1.5h0c-.7-.13-1.37.33-1.5,1.03l-1.59,8.29Z"/><path class="cls-14" d="M278.47,79.17c.04.71-.5,1.32-1.2,1.37h0c-.71.05-1.31-.49-1.36-1.19l-.51-8.42c-.04-.71.5-1.32,1.2-1.37h0c.71-.05,1.32.49,1.36,1.2l.51,8.42Z"/><path class="cls-25" d="M157.41,196.48c.7,6.58-4.06,12.55-10.65,13.33l-18.88,2.22c-6.59.78-12.5-3.93-13.2-10.52l-15.4-144.1c-.7-6.58,4.07-12.55,10.65-13.33l18.88-2.23c6.59-.78,12.5,3.93,13.2,10.52l15.4,144.1Z"/><path class="cls-8" d="M137.97,56.99c.14,1.34-.83,2.56-2.17,2.72l-29.92,3.53c-1.34.16-2.55-.8-2.69-2.14h0c-.14-1.34.83-2.56,2.17-2.72l29.92-3.53c1.34-.16,2.55.8,2.69,2.14h0Z"/><path class="cls-8" d="M146.1,194.9c.09.84-.52,1.6-1.36,1.7l-18.7,2.2c-.84.1-1.59-.5-1.68-1.34h0c-.09-.84.52-1.6,1.36-1.7l18.7-2.21c.84-.1,1.59.5,1.68,1.34h0Z"/><path class="cls-14" d="M137.37,51.35c.08.71-.95,1.42-2.29,1.58l-29.92,3.53c-1.34.16-2.49-.29-2.57-1.01h0c-.08-.71.95-1.42,2.29-1.58l29.92-3.53c1.34-.16,2.49.29,2.57,1h0Z"/><path class="cls-14" d="M138.55,62.4c.08.71-.95,1.42-2.29,1.58l-29.92,3.53c-1.34.16-2.49-.29-2.57-1h0c-.08-.71.95-1.42,2.29-1.58l29.92-3.53c1.34-.16,2.49.29,2.57,1.01h0Z"/><path class="cls-14" d="M153.06,198.22c.08.71-.95,1.42-2.29,1.58l-29.92,3.53c-1.34.16-2.49-.29-2.57-1h0c-.08-.71.95-1.42,2.29-1.58l29.92-3.53c1.34-.16,2.49.29,2.57,1.01h0Z"/><path class="cls-14" d="M123.83,80.52c.25.66-.09,1.4-.75,1.66h0c-.66.26-1.4-.07-1.65-.74l-2.94-7.88c-.25-.66.09-1.4.75-1.66h0c.67-.26,1.4.07,1.65.74l2.94,7.88Z"/><path class="cls-14" d="M121.68,80.87c-.1.7.39,1.35,1.09,1.44h0c.7.09,1.35-.4,1.45-1.1l1.2-8.36c.1-.7-.38-1.35-1.09-1.44h0c-.7-.09-1.35.4-1.45,1.1l-1.21,8.36Z"/><path class="cls-25" d="M314.67,42h19c6.62,0,12,5.38,12,12v145c0,6.62-5.38,12-12,12h-19c-6.62,0-12-5.38-12-12V54c0-6.62,5.38-12,12-12Z"/><path class="cls-8" d="M341.17,58.11c0,1.35-1.1,2.44-2.45,2.44h-30.11c-1.35,0-2.44-1.09-2.44-2.44h0c0-1.35,1.09-2.45,2.44-2.45h30.11c1.35,0,2.45,1.1,2.45,2.45h0Z"/><path class="cls-8" d="M334.61,196.11c0,.84-.69,1.53-1.53,1.53h-18.82c-.84,0-1.53-.68-1.53-1.53h0c0-.84.68-1.53,1.53-1.53h18.82c.84,0,1.53.68,1.53,1.53h0Z"/><path class="cls-14" d="M341.17,52.44c0,.72-1.1,1.3-2.45,1.3h-30.11c-1.35,0-2.44-.58-2.44-1.3h0c0-.72,1.09-1.3,2.44-1.3h30.11c1.35,0,2.45.58,2.45,1.3h0Z"/><path class="cls-14" d="M341.17,63.55c0,.72-1.1,1.3-2.45,1.3h-30.11c-1.35,0-2.44-.58-2.44-1.3h0c0-.72,1.09-1.3,2.44-1.3h30.11c1.35,0,2.45.58,2.45,1.3h0Z"/><path class="cls-14" d="M341.17,200.22c0,.72-1.1,1.3-2.45,1.3h-30.11c-1.35,0-2.44-.58-2.44-1.3h0c0-.72,1.09-1.3,2.44-1.3h30.11c1.35,0,2.45.58,2.45,1.3h0Z"/><path class="cls-14" d="M321.23,78.82c.17.69-.24,1.38-.93,1.56h0c-.69.18-1.38-.24-1.56-.93l-2.09-8.17c-.18-.69.24-1.38.93-1.56h0c.69-.18,1.39.24,1.56.92l2.09,8.17Z"/><path class="cls-14" d="M319.06,78.92c-.17.69.24,1.38.93,1.56h0c.69.18,1.39-.24,1.56-.93l2.09-8.17c.17-.69-.24-1.39-.93-1.56h0c-.69-.18-1.39.24-1.56.92l-2.09,8.17Z"/><path class="cls-14" d="M328.52,79.87c0,.76-.62,1.38-1.37,1.38h0c-.76,0-1.38-.62-1.38-1.38v-9.04c0-.76.62-1.38,1.38-1.38h0c.76,0,1.37.62,1.37,1.38v9.04Z"/><path class="cls-14" d="M333.13,79.57c0,.71-.57,1.28-1.28,1.28h0c-.71,0-1.28-.57-1.28-1.28v-8.43c0-.71.57-1.28,1.28-1.28h0c.71,0,1.28.57,1.28,1.28v8.43Z"/><path class="cls-25" d="M496.25,166.2c6.31,0,11.43,5.64,11.43,12.6v19.95c0,6.96-5.12,12.6-11.43,12.6h-138.06c-6.31,0-11.43-5.64-11.43-12.6v-19.95c0-6.96,5.12-12.6,11.43-12.6h138.06Z"/><path class="cls-8" d="M362.1,170.93c1.28,0,2.33,1.15,2.33,2.57v31.62c0,1.42-1.04,2.57-2.33,2.57h0c-1.29,0-2.33-1.15-2.33-2.57v-31.62c0-1.42,1.04-2.57,2.33-2.57h0Z"/><path class="cls-8" d="M493.49,177.82c.8,0,1.46.72,1.46,1.61v19.76c0,.89-.65,1.6-1.46,1.6h0c-.8,0-1.46-.72-1.46-1.6v-19.76c0-.89.65-1.61,1.46-1.61h0Z"/><path class="cls-14" d="M356.69,170.93c.68,0,1.24,1.15,1.24,2.57v31.62c0,1.42-.55,2.57-1.24,2.57h0c-.68,0-1.24-1.15-1.24-2.57v-31.62c0-1.42.55-2.57,1.24-2.57h0Z"/><path class="cls-14" d="M367.28,170.93c.68,0,1.24,1.15,1.24,2.57v31.62c0,1.42-.55,2.57-1.24,2.57h0c-.68,0-1.24-1.15-1.24-2.57v-31.62c0-1.42.56-2.57,1.24-2.57h0Z"/><path class="cls-14" d="M497.41,170.93c.68,0,1.24,1.15,1.24,2.57v31.62c0,1.42-.55,2.57-1.24,2.57h0c-.68,0-1.24-1.15-1.24-2.57v-31.62c0-1.42.55-2.57,1.24-2.57h0Z"/><path class="cls-14" d="M382,193.75c.65-.18,1.32.25,1.49.97h0c.17.72-.23,1.46-.88,1.64l-7.78,2.19c-.65.18-1.32-.25-1.49-.97h0c-.17-.72.23-1.45.88-1.64l7.78-2.19Z"/><path class="cls-14" d="M382.1,196.03c.65.18,1.32-.25,1.49-.97h0c.17-.72-.23-1.46-.88-1.64l-7.78-2.19c-.65-.18-1.32.25-1.49.97h0c-.17.72.23,1.46.88,1.64l7.78,2.19Z"/><path class="cls-14" d="M382.53,187.32c.68,0,1.22.6,1.22,1.35h0c0,.75-.55,1.35-1.22,1.35h-8.03c-.67,0-1.22-.6-1.22-1.35h0c0-.74.55-1.35,1.22-1.35h8.03Z"/><path class="cls-14" d="M382.53,182.91c.68,0,1.22.6,1.22,1.35h0c0,.74-.55,1.35-1.22,1.35h-8.03c-.67,0-1.22-.6-1.22-1.35h0c0-.74.55-1.35,1.22-1.35h8.03Z"/><path class="cls-14" d="M382.53,178.22c.68,0,1.22.6,1.22,1.35h0c0,.74-.55,1.35-1.22,1.35h-8.03c-.67,0-1.22-.6-1.22-1.35h0c0-.75.55-1.35,1.22-1.35h8.03Z"/></g><g id="PURPLES"><path class="cls-29" d="M672.45,548.92c0,5.07-5.26,9.18-11.74,9.18h-18.6c-6.49,0-11.74-4.11-11.74-9.18v-110.97c0-5.07,5.26-9.18,11.74-9.18h18.6c6.49,0,11.74,4.11,11.74,9.18v110.97Z"/><rect class="cls-6" x="636.55" y="435.6" width="30.2" height="9.25"/><rect class="cls-7" x="637.35" y="447.6" width="28.75" height="3.5"/><rect class="cls-11" x="640.65" y="523.6" width="20.53" height="24.25"/><path class="cls-29" d="M456.35,381.26c.48,5.05-4.36,9.69-10.81,10.37l-18.51,1.95c-6.46.68-12.08-2.86-12.56-7.91l-10.55-110.41c-.48-5.04,4.36-9.69,10.81-10.37l18.51-1.95c6.45-.68,12.08,2.86,12.56,7.9l10.55,110.41Z"/><polygon class="cls-6" points="440.78 278.31 410.73 281.48 409.85 272.27 439.9 269.11 440.78 278.31"/><polygon class="cls-7" points="440.75 284.59 412.14 287.61 411.81 284.13 440.41 281.11 440.75 284.59"/><polygon class="cls-11" points="445.04 381.38 424.61 383.53 422.31 359.4 442.74 357.25 445.04 381.38"/><path class="cls-29" d="M71.51,202.52c0,5.07-5.38,9.18-12.02,9.18h-19.04c-6.64,0-12.02-4.11-12.02-9.18v-110.97c0-5.07,5.38-9.18,12.02-9.18h19.04c6.64,0,12.02,4.11,12.02,9.18v110.97Z"/><rect class="cls-6" x="34.76" y="89.2" width="30.91" height="9.25"/><rect class="cls-7" x="35.58" y="101.2" width="29.43" height="3.5"/><rect class="cls-11" x="38.96" y="177.2" width="21.02" height="24.25"/><path class="cls-29" d="M773.93,385.38c0,5.07-5.26,9.18-11.74,9.18h-18.6c-6.49,0-11.74-4.11-11.74-9.18v-110.97c0-5.07,5.26-9.18,11.74-9.18h18.6c6.48,0,11.74,4.11,11.74,9.18v110.97Z"/><rect class="cls-6" x="738.03" y="272.06" width="30.2" height="9.25"/><rect class="cls-7" x="738.85" y="284.06" width="28.75" height="3.5"/><rect class="cls-11" x="742.13" y="360.06" width="20.53" height="24.25"/></g></g><g id="GREEN"><path class="cls-24" d="M462.67,554.05c-5.56,6.53-9.45,5.98-12.44,3.18l-8.57-8.04c-2.99-2.8-4.24-6.46,1.61-13.34l84.89-99.77c5.86-6.88,9.45-5.98,12.44-3.18l8.56,8.04c2.99,2.8,4.83,5.76-1.61,13.33l-84.88,99.77Z"/><path class="cls-10" d="M520.93,464.77c-2.22-2.09-2.41-3.42-1.74-4.21l15.04-17.68c.67-.79,2.54-.19,4.18,1.34h0c1.63,1.53,2.41,3.42,1.74,4.21l-15.04,17.68c-.67.79-1.37,1.29-4.18-1.34h0Z"/><path class="cls-10" d="M449.51,548.71c-1.64-1.53-2.96-2.78,1.83-8.41l59.03-69.38c4.77-5.6,5.53-4.94,7.75-2.85h0c2.81,2.64,3.38,2.28-1.83,8.41l-59.03,69.37c-5.18,6.1-6.12,4.39-7.75,2.86h0Z"/></g></svg>