<?xml version="1.0" encoding="UTF-8"?><svg id="Layer_1" xmlns="http://www.w3.org/2000/svg" viewBox="0 0 245.69 712.29"><defs><style>.cls-1,.cls-2,.cls-3{stroke-width:0px;}.cls-1,.cls-3{fill-rule:evenodd;}.cls-2,.cls-3,.cls-4{fill:#fff;}.cls-4{stroke:#000;stroke-miterlimit:10;}</style></defs><g id="Introduction"><g id="variations-standing"><g id="a-person_standing"><g id="pose_standing_walking-2"><path id="_-Background" class="cls-3" d="M242.06,698.61c1.67-7.76-5.97-10.39-10.79-12.12-3.45-2.23-16.24-9.97-26.14-19.52-8.1-7.82-13.61-17.83-15.9-18.79-1.57-.91-2.44-1.71-2.61-2.38-1.44-5.95-.24-11.5,0-15.11,4.61-1.21,8.3-2.71,11.06-4.82.81.27,2.01.61,2.37-.56,2.5-16.61,3.57-33.03,5.6-49.66,7.68-63.32,8.55-137.3-4.67-195.14-.14-2.87.11-5.46.37-7.92,1.79-.19,2.87-1.92,4.33-2.95,2.27-1.8,4.95-3.18,4.84-6.32.54-.41.48-.64.21-1.15,1.73-7.42-5.98-15.23-8.16-21.34,3.96-38.68-1.43-75.23,1.58-113.92,3.8-1.59,1.24-11.5.99-15.59-2.1-26.35-15.83-52.4-40.54-61.01-1.41-.29-3.54-1.9-4.71-.82-2.26-.89-5.27.87-7.01-1.16h.02c-1.47-2.05-2.13-4.64-2.62-7.09.08.69.22,1.37.38,2.04-4.26-11.98-5.33-15.19-19.05-15.75-6.18-.08-14.32.1-17.93,5.98-1.48,2.73-1.03,5.87-1.94,8.75-1.68,5.28-8.94,2.73-12.75,5.47-30.51,9.76-55.53,29.69-63.75,61.68-1.68,3.86-3.59,7.69-4.99,11.67-.22.59-.82,2.59.62,3.51l.7.44c-9.16,42.71-9.76,78.7,21,107.17,2.31,12.23-3.63,28.94-1.35,40.82-1.3,1.84.35,3.33,2.01,3.44.16.09.81.37.98.45-2.65,37.28,8.46,87.53,13.36,107.36.67,11.91-3.41,21.69-11.78,28.18-9.26,5.69-27.55,31.38-24.16,58.34-3.96.78-7.9,1.2-11.7,2.69-16.64-2.93-16.48,29.09-17.54,40.34-1.8,18.85-2.91,46.17,15.03,58.24,4.73,3.42,14.31,7.43,19.22,1.95,1.61-1.93,2.01-3.79,1.38-5.76,8.11-11.44,5.92-26.39,6.67-39.81,2.35-.14,4.81.96,7.09.56,2.33-2.05-6.18-1.49-7.07-1.61.09-2.07.26-4.25.47-6.33,1.34.27,3.05.91,4.33.96.76.18,1.3-.86.84-1.4-1-.95-3.56-.81-5-.94.24-1.75.54-3.58.87-5.27,1.76-.06,3.58,1.06,5.24.83-1.26-.84-3.63-.58-5.17-1.14,1-5.44,3.04-10.6,4.93-15.68,4.65,1.91,8.66,1.99,13.19,1.41,1.86.28,2.76-.09,3.06-2.41l-.12-.15c3.6-21.47,15.2-41.94,36.75-65.16,4.26-4.75,9.07-10.35,12.27-16.61,6.44-13.03,7.54-27.4,12.5-40.93,4.63-13.6,10.97-26.6,16.92-39.49.87,6.61,2.04,13.38,3.26,19.86,5.36,22.96,4.84,47.45.9,70.53-5.84,32.33-3.02,64.81-4.32,97.37.02,1.88.25,3.58-.02,5.54-.04.15.03.33.21.32h.34c2.81,2.06,6.68,2.43,9.98,3.54,1.38,1.09.99,2.83,1.12,4.18.36,5.82.83,11.67.25,17.67-2.54,4.86-5.7,3.86-6.35,10.72-.57,7.83-1.57,16.15,2.25,23.13l-1.45.25c-2.15,4.49-.84,7.41,4.21,9.31,24.89,9.74,59.91,18.58,85.88,11.23.47.47,1.16-.02,1.7-.75.52-.71.89-1.64.81-2.18-.44-2.38.17-6.74-2.5-7.18Z"/><path class="cls-4" d="M115.05,397.02c-1.41-2.26-3.62-4.05-5.14-6.28-2.08-3.02-4.04-6.02-6.4-8.84-4.32-5.17-9.59-9.25-14.04-14.22-2.13-2.38-3.93-5.03-6.32-7.18-2.25-2.03-4.09-3.74-5.9-6.2-1.89-2.57-4.37-4.46-6.79-6.45l-13.35,11.11c-3.09,2.57-3.51,7.16-.94,10.25l34.7,41.69c2.57,3.09,7.16,3.51,10.25.94l15.71-13.08c-.72-.43-1.35-1.02-1.8-1.74Z"/><path class="cls-4" d="M157.2,355.7l-34.7-41.69c-2.57-3.09-7.16-3.51-10.25-.94l-17.36,14.46c1.4,2.61,2.35,5.87,3.81,8.1,2.72,4.15,5.01,8.79,8.49,12.37,6.87,7.06,14.98,11,23.44,15.72,4.71,2.62,11.81,7.11,12.71,12.99l12.93-10.76c3.09-2.57,3.51-7.16.94-10.25Z"/><path class="cls-4" d="M109.91,390.74c-2.08-3.02-4.04-6.02-6.4-8.84-4.32-5.17-9.59-9.25-14.04-14.22-2.13-2.38-3.93-5.03-6.32-7.18-2.25-2.03-4.09-3.74-5.9-6.2-2.51-3.43-6.09-5.65-9.13-8.49l-9.98,8.31c-3.09,2.57-3.51,7.16-.94,10.25l34.7,41.69c2.57,3.09,7.16,3.51,10.25.94l12.56-10.46c-1.4-2.03-3.4-3.73-4.81-5.79Z"/><path class="cls-4" d="M158.22,350.85l-34.7-41.69c-2.57-3.09-7.16-3.51-10.25-.94l-20.16,16.79c2.55,2.59,3.59,7.57,5.59,10.62,2.72,4.15,5.01,8.79,8.49,12.37,6.87,7.06,14.98,11,23.44,15.72,3.84,2.14,9.27,5.52,11.64,9.89l15.02-12.51c3.09-2.57,3.51-7.16.94-10.25Z"/><path id="_-Ink" class="cls-1" d="M243.12,706.41c-22.36,10.02-62.98-2.62-84.95-9.94-5.93-2.13-7.9-2.55-6.24-9.37,3.11,5.98,9.79,7.43,16.19,8.63,21.68,4.93,43.78,14.04,66.97,9.6,3.4-.53,6.77-2.37,7.76-5.77.61,1.44.23,3.39.48,4.97.05.63.06,1.31-.21,1.89M152.67,669.13c.4-4.02,1.05-8.26,3.34-11.81-.25,5.74,3.21,15.5,10.78,12.25,2.14-1.13,3.35-3.42,4.73-5.25,4.59-6.03,10.47-11.27,17.11-15.08,3.7.63,5.28,7.38,7.67,10.2-2.66,1.18-7.47,3.87-7.95,6.65,3.32-1.11,6.37-3.19,9.84-3.91,1.11,1.53,2.29,3.02,3.53,4.46-1.62.71-8.15,4.01-8.11,5.65,3.53-.57,6.95-2.3,10.5-3.01,1.58,1.56,3.02,3.25,4.59,4.81-2.37.98-4.88,2.07-6.18,4.34-.06.1.09.22.17.12,1.78-2.14,4.84-2.53,7.49-3.02,4.07,3.83,8.63,7.2,13.73,9.72,5.1,2.79,12.86,3.42,14.89,9.46,1.62,6.04-3.44,6.68-8.11,7.11-4.73.67-9.49.77-14.19.38-14.68-.61-28.57-4.93-42.44-8.69-16.97-3.12-22.47-5.64-21.39-24.39M158.7,633.96c8.99,1.22,18.22.47,27-1.69-.61,2.51-1.02,5.07-1.27,7.64h.02c-.09.82-.31,1.88-.32,2.88.06,1.48.04,3.28.93,4.51-6.5,4.8-12.85,10.14-17.36,16.84-2.99,5.44-6.96,2.13-7.95-2.23-.63-7.72-.34-15.07-.65-22.47h-.03c-.08-1.82-.2-3.65-.37-5.47M157.65,633.8c-.04.27-.08.53-.11.8-.05-.28-.08-.57-.15-.84.09.01.18.03.26.05M153.12,629.9c-1.5-.46-3-.94-4.49-1.44-.37-.12-.97-.15-1.17-.52,5.54-11.53,2.29-24.92,2.55-37.25-1.94-33.6,5.79-66.6,6.89-100-.09-18.93-6.68-36.96-10.02-55.45,3.42-7.31,6.61-14.7,9.71-22.13.1-.23-.28-.36-.41-.16-3.65,5.6-7.28,11.19-10.66,16.94-16.37,24.34-23.73,52.1-31.48,79.78-2.51,6.3-6.55,11.86-11.02,17.03-18.58,20.03-35.93,42.89-40.26,69.96-17.25-.57-22.23-11.13-28.25-24.46.02-.05.03-.1.05-.15-.22-.38-.37-.78-.48-1.2-.05.04-.11.09-.16.13-4.02-7.68,1.67-23.68,4.72-31.7,3.99-8.9,9.37-17.19,16.45-24.07,5.22-4.63,10.62-9.67,12.86-16.3,3.73-10.38.44-21.97-1.66-32.39-5.06-25.86-9.96-65.63-9.18-92.03,6.46-7.68,17.8-6.92,26.86-8.75,2.65,2.49,4.91,5.42,8.21,7.03,3.85,3.58,7.6,7.34,10.42,11.73,3.15,5.99,7.13,11.2,12.71,15.24,2.82,2.23,6.89,5.45,10.83,4.09,2.8-.91,4.36-3.72,7.11-4.66,3.31-.67,5.3-.92,7.25-3.89,2.36-.46,4.61-1.62,3.92-4.35.62.21,1.24.41,1.84.62,1.23.43,2.56-.9,2.15-2.05-1.02-2.39-2.19-4.74-2.59-7.33-.42-11.51-3.39-14.68-13.98-19.29,4.24-.21,8.39.82,12.42,1.97,20.08,7.33,33.25,11.85,54.17,2.65,10.18,84.54,10.01,170.73-2.5,254.98-11.93,8.81-28.57,8.57-42.81,7.43M32.65,581.13c.04-.35.09-.69.13-1.04,2.52,6.82,6.82,13.3,13.24,17.25-2.46,3.06-7.24,3.97-10.47,1.46-5.63-4.21-3.28-11.83-2.9-17.68M43.36,612.92c-2.5-.19-13.18-.56-14.47,1.11,1.44.61,3.43.27,4.98.34,3.02.12,6.03.39,9.01.81-.22,1.16-.43,2.32-.59,3.48-3.01.29-8.88.42-10.79,2.52,3.41.54,6.96.05,10.38.73-.17,1.59-.29,3.19-.38,4.78-1.36.14-9.38,1.47-9.37,2.73,3,.4,6.18-.13,9.24.17-.66,9.56,1.58,38.42-11.51,40.19-11.44-.6-16.47-19.11-18.02-27.99-3.45-20.69-2.86-42.75,3.98-62.7,2.44-5.55,9.09-6.51,14.71-6.8.21.94.42,1.86.66,2.79-2.44,5.51-3.21,11.72-3.28,17.69.52,8.58,11.12,14.95,18.82,9.29-1.44,3.51-2.55,7.16-3.38,10.85M28.21,674.61c-22.67-4.86-26.39-31.06-24.83-50.33,1.27-13.41-.26-41.68,12.15-49.56-16.03,14.6-14.64,114.03,20.89,96.68-.89,2.8-5.44,3.61-8.21,3.21M53.77,377.74c.15-.05.29-.11.42-.19-.03,3.31.02,6.62.14,9.92-.23-3.24-.42-6.49-.56-9.73M51.91,327.37c-30.26-30.09-24.48-64.21-17.53-101.79,11.22,1.34,22.49,4.02,32.6,8.95-3.56,16.59-3.79,31.62-5.32,48.46-.46,2.08.06,6.09,3.01,5.16,27.16,21.52,30.31,65.74,65.95,78.52,14.52,5.89,8.4,10.67,13.19,21.8-2.64-.48-5-2.69-6.13-4.81-.56-1.05-2.2-.13-1.65.92,1.18,2.25,3.17,4.07,5.52,5.2-.29.57-.39,1.21-.42,1.81-4.24.87-3.05,2.87-5.91,3.83-1.87.52-3.68.74-5.3,1.87-5.51,5.12-6.88,4.75-12.8.24.08-.41-7.97-8.26-10.46-12.64-2.08-3.66-4.25-7.34-7.44-10.17-15.6-15.94-32.21-30.98-47.31-47.35M200.54,227.3c-1.55,21.27-1.15,40.28-.81,61.58.19,14.33.28,28.67-.22,43-12.64-32.61-8.77-67.99-10.57-102.27,3.74-1.24,7.75-1.78,11.6-2.32M109.92,145.52c-.04.08-.09.16-.14.23-.31.02-.63.05-.95.09.36-.11.73-.21,1.09-.32M153,148.03s-.02-.07-.03-.1c.03.02.06.04.09.05-.02.01-.04.03-.05.05M245.33,702.26c-.06-1.7-.09-3.89-2.08-4.49.9-7.31-5.18-11.47-11.56-13.5-5.44-3.32-11.62-5.64-16.62-9.65,2.32-.44,4.65-.96,6.71-1.97,1.56-.76.81-3.29-.88-3.06-2.99.39-5.68,1.91-8.49,2.97-1.6-1.31-3.14-2.67-4.6-4.12,1.82-.35,4.13-.22,5.19-2.02.33-.56.18-1.15-.22-1.58-1.84-1.86-5.5,0-7.79.54-1.1-1.26-2.16-2.55-3.2-3.86,1.73-.16,6.23.16,5.35-2.69-1.69-2.23-5.32-.89-7.76-.43-3.1-3.8-4.09-9.63-8.93-11.72-.17-.92-1.38-.85-2.18-.58-.51-2.42-.78-4.33-.9-6.18h-.06c-.05-2.71.05-5.42.21-8.12,3.59-.99,7.16-2.3,10.15-4.43,1.37.4,3.04-.06,3.32-1.67,2.48-16.48,3.59-33.17,5.61-49.71,7.37-60.91,8.97-135.26-4.67-195.44-.11-2.28.05-4.56.28-6.83,1.63-.43,2.6-2.02,3.94-2.94,2.5-2.04,5.05-3.18,5.28-6.73.51-.48.56-1.21.29-1.84.65-3.65-.31-7.27-2.25-10.42-2.13-3.59-4.15-7.21-5.93-10.98,3.89-37.98-1.39-74.8,1.5-112.97,3.7-1.96,1.38-12.82,1.03-16.44-2.16-23.78-13.29-50.04-36.94-59.94-1.66-1.4-3.98-1.87-6.01-2.64-1.37-.67-3.6-1.26-4.54.31-.99-.46-4.2-.82-5.3-1.62-.2-.15-.33-.31-.37-.5-.08,0-.18-.01-.28-.04-1.01-1.43-1.98-11.36-3.22-10.66-1.36,3.41-.42,7.27.88,10.72.9,3.05,2.13,10.89,6.9,8.88.82-.41.31-1.47-.42-1.55-2.26-.64-2.76-3.96-3.64-5.9,1.04.86,5.75,2.14,6.27,2.42,10.23,23.44-51.63,22.21-56.49,6.05-3.47-5.58-.47-8.61,5.71-9.5-4.54,5.04,1.21,6.16,3.4,1.22,2.09-3.54,3.04-7.84,2.33-11.91.37-1.43.68-3.34-1.46-2.96-.07-.19-.19-.04-.14.09-.78,1.24-.24,3.03-.52,4.46-.24,2.35-.9,4.65-2.04,6.72-2.1.4-4.19.83-6.28,1.3-1.25-2.53-9.35,2.52-11.53,3.11-28.9,8.52-50.88,31.21-58.55,59.83-1.71,3.81-3.56,7.64-4.96,11.57-.63,1.7-.63,3.81,1.09,4.92-8.39,38.41-10.44,78.43,21.26,107.24.72,3.12.24,6.43.22,9.6.27,7.23-5.93,32.02,1.27,35.23-2.1,32.11,5.78,75.81,13.42,106.79.56,10.65-2.65,20.34-11.31,27.05-16.47,12.29-23.4,32.8-25.33,52.34-.27,2,0,4.04.45,6.01-3.57.66-6.91,1.09-10.38,2.4-19.11-3.65-17.75,37.32-19.21,49.48-1.14,17.97-.43,39.52,16.12,51.29,5.56,3.95,15.39,7.75,20.81,1.76,1.53-1.83,2.37-3.97,1.77-6.32,7.77-11.36,5.94-25.88,6.52-38.81,2.04.07,4.25.98,6.26.48,1.54-.41,1.74-2.38.43-3.17-1.89-1.07-4.45-.66-6.56-.73.06-1.24.16-2.47.28-3.71,2,.49,4.87,1.66,5.47-1.13.24-2.54-2.98-2.74-4.98-2.85.14-.96.3-1.92.47-2.87,1.53.15,3.15,1.13,4.66.66.85-.34,1.15-1.2.53-1.9-1.16-1.14-3.15-.91-4.68-1.26.93-4.56,2.62-8.93,4.24-13.29,2.94,1.02,6.12,1.69,9.26,1.44,1.63-.34,3.4-.44,5.05-.22,1.83-.48,2.25-2.43,2.49-4.03-.04-.06-.07-.11-.11-.16,4.22-24.55,19.38-45.77,36.38-64.04,4.68-5.23,9.27-10.67,12.45-16.88,6.46-12.98,7.62-27.58,12.56-41.06,4.16-12.24,9.73-23.99,15.18-35.74,2.19,15.49,6.27,30.72,6.74,46.42.71,19.87-3.67,39.45-5.55,59.16-3.37,25.94-.31,52.04-1.93,78,.01,1.84.25,3.57-.01,5.4-.14,1.02.59,1.65,1.36,1.68,2.83,1.85,6.38,2.51,9.63,3.3.9.69.51,2.38.67,3.42.06,1.04.13,2.08.19,3.12h0c.29,4.38.5,8.18.04,12.95-3.18,4.69-5.47,3.94-6.35,11.07-.49,7.44-1.56,15.49,1.7,22.24-1.46.33-2.01,4.77-1.79,5.95.37,3.31,3.3,4.36,6.13,5.51,20.69,7.74,64.64,20.47,85.9,11.71,1.52.86,3.22-.83,3.71-2.18.65-1.65.05-3.25-.07-4.89"/></g><g id="Head"><g id="head_Long-Afro"><path id="_-Background-2" class="cls-3" d="M175.86,93.61c-1.63-19.83-6.59-37.4-29.92-38.15-10.53.09-21.27,2.33-30.95,6.45-23.52,11.77-30.99,54.78-10.26,72.1-.12.07-.15.27,0,.37,4.28,2.87,9.04,5.24,13.81,7.23,12.7,5.36,27.65,7.68,40.6,1.87,19.76-8.39,20.06-31.74,16.73-49.88h0Z"/><path id="_-Ink-2" class="cls-1" d="M214.76,84.36c.81-.73,1.42-1.69,1.72-2.76.28-.98.3-2.05,0-3.02-.32-1.05-1-1.88-.85-2.97.02-.11.04-.22.07-.33.59-2.05,2.05-3.53,1.53-5.81-.15-.64-.43-1.22-.81-1.68.04-.49.08-.99.11-1.49.86-2,.83-4.38-.09-6.35-.11-1.01-.28-2.01-.52-2.99.11-.87-.04-1.83-.32-2.59-.49-1.34-1.1-2.66-1.76-3.96.08-.35.04-.73-.15-1.06-.36-.61-.83-1.14-1.31-1.66-.34-.61-.68-1.21-1.02-1.8-.16-.27-.33-.58-.52-.9.52-.97.8-1.91.25-3.05-.21-.43-.78-.74-1.25-.72-.51.03-1.03.05-1.55.07-.98-1.18-2.08-2.23-3.26-2.84-1.2-1.01-2.42-2.01-3.6-3.03-.33-.29-.67-.58-1.01-.87,0,0,0-.02,0-.02-.25-.9-.52-1.78-.8-2.68-.17-.55-.23-1.13-.76-1.43-1.13-.63-2.86-.73-4.15-.83-.13-.11-.26-.23-.38-.34.59-1.56.48-3.22-.26-4.78-.25-.53-1.13-.77-1.61-.42-1.11.81-2.42,1.1-3.72.98-1.91-1.46-9.61-8.09-10.8-8.79-.01-.03-.03-.05-.04-.08-.67-1.07-1.48-1.92-2.39-2.61-.13-.14-.26-.27-.39-.41.11-.81.42-1.6.9-2.25.05-.08.11-.15.17-.22.85-1.01-.19-2.31-1.38-1.78-.09.04-.17.08-.26.12-.91.41-1.92.85-2.97,1.22-.38-.14-.78-.27-1.14-.42l-3.83-1.54c-.63-.25-1.3-.47-1.91-.77-.21-1.41-1.63-2.34-3.1-2.29.09-.27.21-.53.39-.78.05-.07.11-.14.17-.21.76-.88-.25-2.51-1.34-1.73-.08.05-.15.11-.23.16-.3.21-.61.41-.92.6-.5-.22-1.06-.27-1.65-.04-1.3.51-2.5,1.03-3.65,1.82-.05.03-.09.06-.14.09-.57-.69-1.47-1.14-2.28-1.14-.02,0-.03,0-.04,0-.61-.92-1.72-1.46-2.8-1.33.07-1.33-1.26-2.51-2.47-2.65-1.41-.17-2.69.65-3.11,2.03-.12.38-.24.77-.35,1.15-1.1-.55-2.26-.98-3.47-1.19-2.76-.48-5.45.03-8.11.8-.27.08-.53.15-.8.23-.38-.44-.73-.89-1.07-1.31-.59-.72-1.99-.14-1.9.78.07.64-.19,1.1-.62,1.43-.46.07-.91.09-1.58.07-.89-.02-1.29-.05-2.22-.41-.43-.17-.97-.61-1.22-1.01-.97-1.52-3.43-1.93-4.6-.48-1.23-.54-2.79.2-3.47,1.25-.36.55-1.1.85-2.04,1.12-.71.2-1.43.35-2.15.48-.32-.44-1-.73-1.5-.36-.34.25-.67.5-.99.77-2.5.34-4.98.36-7.36-.62-2.01-.82-3.86,1.42-3.53,3.31-.58.3-1.22.5-1.79.82-1.26.69-2.29,1.79-2.92,3.08-.11.23-.21.46-.31.7-.47.38-.93.77-1.39,1.19-.76-.39-1.51-.77-2.26-1.16-.57-.29-1.52-.09-1.63.66-.18,1.23-.63,2.25-1.26,3.11-2.06,1.08-4.04,2.29-5.94,3.64-2.18.68-4.5,1.08-6.41,1.53-.65.15-1.01,1-.64,1.57.39.6.78,1.2,1.17,1.8-1.09,1.06-2.1,2.16-3.07,3.3-2.68,3.18-4.92,6.66-6.92,10.35-.79.32-1.59.64-2.38.96-.76.31-1.11,1.19-.49,1.85.29.31.56.64.78.98-1.12,1.86-2.45,3.55-4.3,4.66-.56.34-.99.87-1.21,1.46-.19.13-.38.27-.57.41-.52.39-.84,1.25-.23,1.76.43.36.83.79,1.18,1.26.07.27.15.54.23.81-1.72,1.58-3.15,3.41-4.22,5.47-.25-.04-.52-.01-.73.14-1.92,1.41-1.98,3.67-1.2,5.68-.47,3.04-.17,6.15.73,9.09-1.18,1.18-1.89,2.87-2.18,4.51-.51,2.87-.55,7.29-.68,10.22-1.29,1.24-2.2,2.84-2.71,4.57-.43.21-.86.43-1.29.64-.38.19-.66.69-.64,1.11.11,2.04.95,3.65,2.07,5.11.4,1.13.98,2.16,1.75,3.16.53.68,1.05,1.34,1.51,2.07.05.07.08.14.1.19-.18.19-.33.52-.46.75-1.1,1.93-1.11,4.19.44,5.87-.59.48-.61,1.45-.09,2.04,3.37,3.84,6.18,8.51,10.86,10.55.02.04.04.07.06.11-.95,2.28-1.08,3.46-.3,5.81,0,.02.01.04.02.06.41,1.23,1.17,3.21,2.54,3.59.43.12.86.18,1.28.17,1.09,1.05,2.17,2.09,3.26,3.14.09.52.15,1.04.17,1.57.03.88.86,1.6,1.76,1.34.32-.09,2.06-1.79,2.38-1.78.16.16.32.32.47.49.58.6,1.38,1.56,1.44,2.19.13,1.19.91,2.56,2.18,2.8.47.48,1.23.63,1.82,0,.04-.04.08-.08.12-.12.06,0,.12-.01.18-.02.28.83.56,1.67.84,2.5.55,1.64,2.67,2.69,4.17,1.74.24.14.48.3.72.45.36.23.73.46,1.1.68.02.06.04.12.06.18.24.74,1.25,1.13,1.87.71.19.06.39.11.59.15,1.05.21,2.1.15,3.11-.2.72-.25,1.42-.72,2.19-.78.05,0,.1,0,.15,0,.64,1.3,2.09,2.42,3.23,2.8,1.5.5,3.03.32,4.4-.29.37.73.83,1.43,1.38,2.07.31.36.86.28,1.18,0,.6-.53,1.2-1.06,1.79-1.6.43-.17.87-.36,1.32-.55,1.42-.58,2.97-.82,4.29-1.65.62-.4,1.21-.9,1.69-1.49.91-.52,1.74-1.18,2.5-1.92.38,0,.77-.09,1.15-.28,1.59-.81,2.42-2.45,2.5-4.12,1.29-3.02,2.05-6.25,2.26-9.54.07-1.08.08-2.18,0-3.26-.06-.76-.25-1.27-.54-1.96-.1-.23-.19-.43-.25-.66.02-.73.03-1.46.04-2.19.2-.61.55-1.19,1.04-1.67.76-.74,1.1-2.29.42-3.21-.45-.59-.9-1.19-1.34-1.78.13-2.55.74-6.61-.62-7.04.05-.38.17-.75.24-1.13.32-1.81.13-3.43-.84-5.01-.2-.33-.37-.62-.51-.91l-.26-1.56c-.14-.8-.27-1.61-.38-2.43-.06-1.04-.11-2.08-.17-3.12-.05-.96-.12-1.92-.18-2.87.03-.43.06-.86.12-1.29.33-2.56,1.37-3.5,3.19-5.28.28-.05.57-.09.85-.15,1.29-.27,2.65-.68,3.98-.53,1.45.16,2.74.78,4.15-.01.41-.24,1.32-.89,1.4-1.41,0-.03.01-.06.02-.08.1-.01.22-.03.3-.03,1.12-.04,2.18.4,3.31.28,1.33-.14,2.52-.73,3.31-1.61,1,.25,2.03.36,3.07.22.87-.11,1.66-.4,2.43-.82.56-.3.38-.39,1-.14,1.39.56,2.66,1.31,4.22.92.81-.2,1.52-.64,2.11-1.23.14-.14.38-.34.54-.54.75.38,2.62,1.23,2.93,1.3.87.21,1.8.18,2.65-.1.62-.21,1.39-.78,1.94-.89.71-.15,2.29.83,3.13,1.17,1.49.59,3.06.74,4.57.13.52-.21,1.52-1.05,1.91-1.05.63.78,2.39,5.02,2.91,6.56,2.14,6.26,2.69,25.79,1.7,30.78-.04.15-.08.29-.12.44-1.21,4.33-2.47,8.74-4.5,12.78-1.91,3.81-4.56,7.23-8.35,9.31-3.93,2.16-8.55,2.72-12.97,2.43-2.85-.18-5.65-.76-8.4-1.47-1.44-.37-2.87-.79-4.29-1.22-.62-.19-1.25-.36-1.86-.58-1.07-.39-1.64-.42-2.66.08-.94.45-1.18,1.78-.69,2.62.79,1.37,2.25,1.46,3.65,1.86,1.43.41,2.86.79,4.31,1.14,2.77.66,5.58,1.17,8.41,1.41,5.08.42,10.31-.23,14.93-2.44.52-.25,1.03-.52,1.51-.81-.18.25-.36.5-.55.75-.51.69-.13,1.86.59,2.24.23.12.46.23.69.34.03.07.06.15.1.22.66,1.32,2.04,2.1,3.44,2.43,1.67.4,3.53.12,5.23.07,1.57-.05,3.14-.09,4.71-.14.37,0,.74-.02,1.11-.03,1.87-.06,3.73-.11,5.6-.17,1.66-.05,1.58.08,3.14-.59.7-.3,1.27-.72,1.75-1.28.3-.13.59-.28.87-.46.89-.55,1.69-1.3,2.42-2.12,1.24.39,2.98.03,3.23-1.53.39-2.49,3.63-3.56,5.15-5.36,1.22-1.45,2.1-3.36,2.05-5.18,3.08-1.49,4.76-5.41,5.15-8.74.18-1.54.15-3.19.42-4.76.12-.13.22-.26.31-.4.77-1.25,1.45-2.54,2.04-3.85.81-.58,1.78-.94,2.8-1,2.5-.14,2.97-3.51.59-4.32-.01,0-.02,0-.03-.01.65-1.61.59-3.52-.19-5.05.03-.17.06-.33.1-.5,1.34-1.43,2.1-3.43,2.02-5.37.61-.43,1.29-.76,2.04-.97,1.16-.32,1.16-1.73.31-2.36-.34-.25-.63-.55-.87-.88.59-1.77.36-3.82-.85-5.28.77-.98,1.53-1.96,2.3-2.94.51-.65.78-1.75,0-2.37-.5-.4-.99-.79-1.49-1.18Z"/></g><g id="face_Smile"><path id="_-Ink-3" class="cls-1" d="M151.42,129.63c-1.6-.65-3.02-1.73-4.06-3.12-.36-.48-.46-.99-.38-1.45.09-.52.4-1,.82-1.31.42-.32.95-.48,1.47-.4.45.07.89.31,1.24.82l.07.1c.62.84,1.43,1.52,2.35,1.96.89.43,1.88.62,2.9.51,1.95-.22,3.3-1.27,4.73-2.71.18-.18.35-.37.53-.56.11-.17.27-.28.44-.34.19-.06.41-.06.61,0,.19.07.36.19.48.36.11.16.17.36.15.59-.13,1.48-.91,2.81-2.01,3.85-1.23,1.15-2.85,1.95-4.38,2.23-1.69.31-3.4.09-4.96-.55h0ZM157.17,106.74c1.79,1.09,4.53,3.62,2.6,6.32-2.27,2.38-5.54-.35-7.15-1.58-1.49-.96-3.17,1.5-1.79,2.62,11.64,8.6,16.37-7.07,7.25-8.64-1-.17-1.38.94-.91,1.28ZM136.31,96.73c.2-2.45,3.94-3.01,4.32-.58.33,2.18-.06,4.17-1.04,6.13-.94,1.87-3.3,1-3.48-.71-.24-2.28.08-3.32.2-4.84ZM164.82,95.65c.52-.68,1.28-1.15,2.18-.89,2.82.82,1.99,4.82,1,6.77-.54,1.06-2.28,1.33-3.07.39-1.28-1.52-1.9-4.55-.27-6.04.04-.08.09-.16.15-.23ZM139.55,85.99l.45-.08c1.38-.24,3.09-.47,4.07.64.52.59.7,1.68,0,2.24-1.22.99-2.58.61-4.04.69-1.21.07-2.37.27-3.53.6-2.55.73-4.63,2.06-6.81,3.52-.29.19-.58-.17-.44-.44,1.26-2.46,3.7-4.48,6.14-5.71,1.3-.66,2.73-1.2,4.17-1.45ZM162.25,84.89l.34.07c3.71.77,8.54,2.32,10.3,5.96.07.51,0,.63-.06.7l-.02.02c-.05.06-.09.15-.31.22-.06-.01-.12-.03-.19-.05-.81-.21-1.44-.5-2.06-.8l-.67-.33c-.78-.38-1.56-.75-2.39-1.02-1.77-.58-3.6-.98-5.45-1.2-.4-.05-.79-.18-1.09-.41-.29-.22-.51-.52-.61-.93-.13-.52-.09-.92.19-1.39.21-.35.51-.6.86-.74.35-.14.76-.18,1.16-.1Z"/></g></g></g></g></g><path class="cls-3" d="M83.96,365.74l-16.65-18.41s-8.17,6.72-8.51,8.34-1.19,4.8-.51,6.78,4.36,7.73,4.36,7.73l18.02-1.58,3.29-2.87Z"/><path class="cls-3" d="M93.8,324.43l20.79-17.08s5.46-1.21,7.19.3,36.44,43.2,36.44,43.2c0,0,3.06,3.85,1.37,6.76s-12.89,11.6-12.89,11.6l-14.86-6.33-12.17-8.06-11.18-7.4-14.69-22.99Z"/><path class="cls-4" d="M62.24,370.4s-4.38-6.9-4.93-8.6,1.66-9.16,1.66-9.16c0,0-3.32,7.63-3.74,9.24s-.44,3.75-.07,5.25,3.84,5.45,3.84,5.45"/><path class="cls-2" d="M153.05,367.98s5.02-4.15,6.63-5.92.83-5.36.83-5.36c0,0-.45,2.04-2.49,4.15s-7.23,6.36-7.23,6.36l2.25.78Z"/></svg>