<?xml version="1.0" encoding="UTF-8"?><svg id="Layer_1" xmlns="http://www.w3.org/2000/svg" viewBox="0 0 302.54 679.38"><defs><style>.cls-1,.cls-2{stroke-width:0px;}.cls-1,.cls-2,.cls-3{fill-rule:evenodd;}.cls-2,.cls-4{fill:#fff;}.cls-3{fill:none;stroke-width:2px;}.cls-3,.cls-4{stroke:#000;stroke-miterlimit:10;}.cls-4{stroke-width:3px;}</style></defs><g id="Introduction"><g id="variations-standing"><g id="a-person_standing"><g id="pose_standing_resting-1"><path id="_-Background" class="cls-2" d="M55.34,224.34l-.34,4-.25-.47c-.04,8.07-1.23,16.23-2.56,24.29-3.45-2.84-6.29-5.34-5.47-10.18,2.08-6.9,4.74-13.63,6.89-20.49l.36,1.8,1.42.29-.06.76ZM302.02,649.57c-.64-2.8-1.33-5.77-1.98-8.59-.06-.24-.66-.29-.85-.36-3.44-8.4-6.45-10.32-13.11-11.46-10.74-1.94-21.34-6.14-31.48-12.37.24-.93.88-2.53,1.47-4.24-.08.03-.15.05-.23.06-.14.03-.26.03-.39.02-.69,1.61-1.44,3.03-1.83,3.55-1.27-.82-2.68-1.71-3.92-2.58v-.02c-1.1-.76-2.47-1.71-3.55-2.3-.2-1.12-1.84-1.46-2.7-2.2-1.66-1.19-2.59-1.8-4.11-.28-3.29-4.27-5.94-8.78-8.55-14.62-1.63-3.41-2.43-7.19-4.63-10.23.04-.02,1.44-.46,1.47-.5-24.93-55.13-28.92-116.47-34.24-175.4-1.17-13.18-2.4-26.48-4.69-39.27-.31-1.94-.6-3.84-1.76-5.39,14.01-11.52,14.15-33.86,7.36-50.42,15.6-42.01-14.98-86.63-12.72-129.51,1.27-29.08-3.98-62.78-36.89-69.76-4.08-2.34-8.97-2.7-12.87-2.76-3.51-1.77-4.06-5.67-5.31-8.88h-1.22c-.36-1.44-.71-3.04-1.02-4.5-.46-.93-.19-2.14-1.65-1.88-3.3-4.78-29.75-7.18-30.05.51-.95.56-1.14,1.66-1.37,2.99-1.47,9.45-11.57,16.98-20.68,15.46l-.15-.13c-38.76-1.43-54.02,26.09-61.59,63.6-5.92,29.15-9.68,60.73-5.05,89.93,4.53,13.23,18.24,19.6,28.85,27.75-1.22,3.08-1.34,6.47-1.37,9.8-.14,3.84-.42,7.72-.76,11.51-.7,4.81-1.83,13.08,4.73,13.64,2.54,57.43,7.84,114.71-.26,172.31-6.73,31.85-4.15,70.4,4.17,101.56.48,1.54,1.71,2.93,3.29,2.43.8.52,1.42.84,2.08.35.39.72.82,1.41,1.28,2.08.17,8.56,1.15,16.96.7,25.58-.66-.08-2.11-.8-2.68-.33l-.08.66-.54.18c-1.12,3.17-1.83,6.49-2.35,9.17-2.28,4.6-5.18,12.73-3.56,17.85-.08.09-.52.6-.58.67-.39.22-.46.52-.55.86-1.1.41-1.22,1.67-1.33,2.96-.55,3.12.27,5.96.55,9.01l.02-.02s.93,1.07.93,1.07c11.65.71,23.13.89,34.73,1.31.88-1.67,1.14-3.94,1.8-5.77,13.75,10.04,37.58,6.2,54.86,3.73,7.02-1.01,13.64-1.96,19.52-2.28.38-.05.41-.22.42-.37.06-2.3.49-4.66.27-6.89,1.21-1.18.66-3.32-.17-5.2-3.07-6.63-11.4-7.35-18.15-8.49-12.7-2.46-22.92-7.09-31.18-14.17.56-.5,1.06-.99,1.52-1.48-.18-.12-.36-.24-.54-.36-.43-.19-.85-.39-1.23-.63-.19.11-.44.13-.68,0-.83-.47-1.51-1.15-2.3-1.67-.16.22-.31.45-.47.69-.76-.8-1.61-1.7-2.36-2.53-.03-.23.03-.81-.25-.87-2.13.21-4.59.93-6.82,1.73-2.52-8.25-3.97-17.18-3.8-25.61,2.47,0,4.64-.02,6.48-1.2.5.14,1.21.43,1.34-.36.75-3.23.94-6.65,1.13-9.95,3.83-62.55,9.66-112.81,29.01-165.79,1.86,7.36,4.98,15.01,7.82,22.33,12.92,30.61,22.22,63.62,30.2,95.74,3.14,12.02,6.55,25.24,9.92,37.14,1.31,5.72,3.96,7.81,9.53,7.77,4.29.2,8.59.14,12.9-.16,5.87,5.34,8.28,12.55,9.99,19.05-1.43,1.06-3.7.66-5.37,1.01-1.44,2.32-.94,5.56-.91,8.42.23,3.71.03,7.7,1.12,11.21.19,3.84.22,8.04.51,12.5-3.18,1.84-2.6,5.91-1.54,9.81.47.99,17.58.79,21.82.75,4.99-.29,12.1.98,13.73-4.48,11.87,6.58,29.93,4.36,43.76,2.42,10.04-1.22,19.13-2.36,28.99-4.43.1-.04.25-.36.17-.51h0Z"/><path class="cls-4" d="M116.35,300.6l-23.15-40.11c-1.97-3.42-6.34-4.59-9.76-2.61l-16.27,9.39c2.68,2.33,5.22,4.81,7.85,7.2,2.95,2.69,6.79,4.8,9.28,7.91.73.91,1.09,1.9,1.17,2.87.38.31.76.63,1.11.98.87.36,1.53.97,2,1.69.05.03.1.08.15.12,1.11.35,1.93,1.06,2.48,1.95,1.02.86,1.58,2.13,1.7,3.45.99,2.31-.32,4.93-2.09,6.55-2.38,2.18-5.55,3.67-8.39,5.15-3.45,1.8-6.55,4.02-9.78,6.17-.82.54-1.62,1.08-2.51,1.51-.67.32-1.38.59-1.99,1-1.26.84-1.85,2.35-3.04,3.29-.34.27-.73.45-1.13.52-.6.63-1.67.92-2.41.38-6.04-4.34-11.62-9.35-17.04-14.44-2.71-2.55-5.48-5.12-8.37-7.47-1.35-1.1-2.82-2.02-4.3-2.93-1.22-.76-2.5-1.98-3.95-2.2-.35-.05-.64-.24-.87-.5l-1.11.64c-3.42,1.97-4.59,6.34-2.61,9.76l23.15,40.11c1.97,3.42,6.34,4.59,9.76,2.61l23.09-13.33c-2.02-3.42-4.3-6.65-6.36-10.05-.91-1.5-2.49-3.15-1.88-5.07.6-1.88,2.83-2.9,4.49-3.63,1.81-.79,3.75-1.4,5.34-2.6,1.67-1.25,3.04-2.87,4.63-4.22,1.7-1.44,3.52-2.41,5.49-3.41.78-.4,1.52-.73,2.01-1.48.5-.76.8-1.64,1.28-2.42.88-1.44,3.05-1.14,3.54.46.53,1.73,1.43,2.98,2.5,4.4,1.12,1.5,2.16,3.07,3.04,4.72.43.8.74,1.67,1.19,2.46.39.68.96,1.2,1.45,1.79.83,1,1.09,1.92,1.12,2.93l6.58-3.8c3.42-1.97,4.59-6.34,2.61-9.76Z"/><path id="_-Ink" class="cls-1" d="M194.38,613.76c2.68,1.48,4.82,3.8,7.62,5.08,12.15,6.08,27.54,2.8,36.8-6.94,1.31.03,2.35-1.4,2.08-2.69,2.78.24,4.97,2.38,7.04,4.07-.28,1.95-.15,3.92.64,5.79.06.15.33.21.36,0,.24-1.42.49-2.85.81-4.26.58.48,1.18.93,1.78,1.38.05,1.17,1.27,2.02,2.27,1.62,8.18,5.54,17.43,9.48,27.04,11.78,7.52,1.57,11.42,1.41,14.75,9.31-1.24.25-2.45.85-4.31,1.3-31.42,3.66-63.14-.28-94.61,2.39-.42-6.91-.8-13.81-1.27-20.72-.17-2.48-.24-4.99-1.21-7.31.02-.28.06-.56.15-.78.02,0,.03,0,.05,0ZM195.55,596.75c.1-.46-.26-.85-.62-1.15-.41-.69-.88-1.34-1.43-1.89,10.91-.96,21.38-4.32,31.63-7.77,1.24,8.8,5.64,16.79,10.59,24.05-8.41,8.75-22.1,10.88-33.11,6.1.73-1.62-.84-3.95-1.24-5.62-1.38-4-3.27-7.83-4.91-11.72-.28-.64-.57-1.32-.91-1.99ZM193.3,596.6c.07.05.15.11.22.15.05.11.09.22.13.33-.11-.12-.23-.24-.35-.36,0-.04,0-.08,0-.12ZM92.4,632.9c.22.39.45.77.68,1.14-.46.28-3.9,7.59-1.98,6.42,1.07-1.52,2.14-3.05,3.29-4.51.32.43.65.85.99,1.26-1.19.85-.72,2.84.85,2.85.56,0,1-.11,1.52-.31,7.03,6.71,16.26,10.68,25.56,13.14,7.7,2.41,22.21,1.18,22.61,12.14-.78-.02-1.62.23-2.22.8-34.01,11.49-69.15-.62-103.46-3.98.47-.95-.13-2.66-1.38-2.59-.01-7.68,2.11-15.3,5.19-22.29,17.45,16.62,29.95.36,47.56-3.61.34-.07.6-.24.79-.46ZM101.4,629.91c-.05,0-.18-.02-.23,0-.71,2.39-2.21,4.53-4.13,6.08-.51-.47-1.01-.94-1.5-1.43,1.28-1.48,2.68-2.86,4.3-4.01.45-.31.99-.67,1.56-.64ZM33.53,322.74c-.45-1.66.06-3.39.11-5.08.23-2.71-8.39-13.3-10.49-19.6-1.45-4.36,3.42-4.85,3.38-6.73-.13-1.66,8.71,6.48,8.71,6.48,0,0,17.28,16.27,25.8,24.47.88.85,2.19.79,3.08,0,1.85-1.65,3.76-3.2,5.73-4.65.68,2.22,6.23,11.94,7.43,13.93-7.79.95-18.82,13.2-26.55,12.6-5.19-.4-11.57-22.13-16.72-21.45-.13.02-.34.02-.48.04ZM50.71,249.01c-2.72-2.35-3.86-3.88-3.53-7.58,1.61-5.46,3.7-10.77,5.48-16.18.23,1.14.25,2.31.34,3.47-.63,6.78-1.12,13.58-2.29,20.29ZM53.48,223.35c-.04-.07-.08-.14-.12-.21.06-.18.12-.37.18-.55-.02.25-.04.5-.06.76ZM4.42,265.08c.02-2.9-.36-5.82-.53-8.71-1.39-24.32.31-48.82,5.08-72.72,6.29-33.78,17.94-67.71,58.21-68.4,1.41,1.28,1.91,3.25,2.7,4.94,2.37,4.69,5.86,8.75,9.86,12.14,16.56,13.46,60.37,28.82,64.22-3.78,0-1.01-.06-2.08-.22-3.15.36-1.12.19-2.53-.06-3.79.17-.9-.09-1.94-.55-2.91.08-.06.15-.13.21-.21-1.81-3.44-4.91-4.57-8.35-5.87-.47-.47-.05-1.46.67-1.2,1.6.56,3.25.94,4.92,1.23.23.04.38.16.45.32,39.05,11.8,37.78,43.9,37.18,77.83.59,36.56,21.81,70.88,15.62,107.81-7.31-44.57-21.69-87.92-24.95-133.18-.25-4.06-.85-8.07-1.31-12.1-.23-1.7-.49-6.46-1.07-5.67-2.79,15.57-.61,31.56,1.73,47.06,5.16,31.49,13.68,62.31,19.44,93.68,3.18,13.95,3.52,28.61-10.5,36.68-15.15,8.32-34,6.65-50.38,3.28-1.31-.31-2.29.37-2.76,1.31-3.2-6.68-10.37-9.97-15.04-15.46-4.68-5.98-7.73-13.05-12.03-19.3.44-3.8-3.11-9.8-7.15-9.88-10.21-10.64-21.25-20.48-33.19-29.16-.17-.55-.64-.86-.97-1.35-.49-.83-.8-1.86-.73-2.81,1.81-10.45,2.24-21.28-.6-31.59,5.05-15.67,8.13-31.84,11.01-48.01.27-.78-1.04-1.15-1.24-.34-.34,1.72-.66,3.43-.98,5.15-5.82,21.45-12.76,42.54-20.33,63.44-.88,2.91-1.71,5.82-1.21,8.87.43,1.78,3.13,1.61,3.44-.22.6-.18,1.14-.02,1.61.34,0,0,0-.01.01-.02,3.62,5.17,8.42,9.44,13.3,13.48,8.36,7.1,16.57,14.38,24.29,22.17,1.84,2.37,8,6.6,8.43,9.8-.81,5.7-6.72,8.4-11.36,10.63-6.75,3.27-13.09,7.42-18.7,12.39-12.23-11.28-24.97-22.04-38.43-31.83-7.72-5.55-17.28-11.04-19.77-20.89ZM141.45,119c.03.18.06.37.09.55-.14-.2-.29-.4-.45-.59.12.02.24.03.36.04ZM185.55,359.82c-.13-.39-.27-.77-.41-1.15.36-1.71.9-3.32,1.06-5.12,3.46-3.51,5.61-8.29,6.19-13.17.17-1.43.27-2.81-.78-3.93-.39-.41-1.21-.46-1.59,0-1.29,1.55-.96,3.89-1.42,5.79-.97,4.01-3.21,7.79-6.43,10.35-1.81,1.48-4.12,3.34-6.19,3.91,1.62-6.31,5.18-12.31,5.65-18.96.14-1.95.01-3.77-.47-5.67-.35-1.18-.89-2.21-.47-3.44,4.89-3.15,9.21-7.69,11.4-13.17.78.09,1.58-.26,1.94-1.13,1.76,12.96,4.12,26.65-2.66,38.54-1.52,2.69-3.48,5.14-5.83,7.16ZM115.82,329.81c-1.91-1.95-3.63-4.07-5.38-6.16-1.86-1.93-5.04,1.08-1.75,3.9,5.73,7.15,5.53,16.07,2.81,24.35-.47-2.13-.85-4.24-1.55-6.33-1.75-5.18-4.41-10-7.72-14.35-.8-1.04-2.86-.51-2.34.98,1.66,4.72,2.4,9.94,1.65,14.92-.35,2.32-1.35,4.53-1.49,6.88-.05.82.44,2.88-.85,2.41-.5-.18-.94-1.23-1.15-1.9-1.05-3.45-.83-7.11-1.23-10.66-.5-4.61-1.27-9.35-4.59-12.85-.73-.77-1.8-.27-2.14.56-2.62,6.31.09,14.13-4.57,19.66-.23.26-1.56,1.55-1.78,1.38-.37-.29.03-1.92.09-2.3,3.2-13.21-7.68-24.17-11.57-34.41,7.74-6.35,21-8.39,24.36-18.8,3.14,6.92,5.86,14.23,10.83,20.1,4.88,5.83,14.02,9.67,14.4,18.18-2.33-1.35-4.14-3.68-6.03-5.58ZM45.64,606c5.98.09,12,1.95,17.93,1.85,5.48.19,10.96-.06,16.43-.39-2.07,8.14-1.27,17.68,1.46,25.58-10.63,4.96-20.32,12.05-31.98,5.13-.13-1.02-.48-2.04-.81-3.04.13-.55.24-1.27-.27-1.71.03-9.2-.92-18.41-2.76-27.42ZM254.99,606.13c.71.74-1.81,6.54-2.42,7.52-.72-.46-1.43-.92-2.13-1.4.56-1.67,1.32-3.26,2.41-4.72.3-.39,1.47-1.98,2.14-1.4ZM300.52,639.82c-.12-.5-.6-.96-1.12-1.09-1.51-3.9-3.93-7.79-7.67-9.84-2.26-1.17-4.76-1.51-7.22-2-10.34-2.01-20.16-6.1-29.14-11.51.88-2.49,1.71-4.96,2.24-7.54.86-2.89-1.44-5.3-4.32-4.09-2.54,1.14-4.07,4.62-4.83,7.12-.64-.44-1.31-.88-2.01-1.28-.36-1.01-1.55-1.44-2.47-2.01-1.43-.95-3.36-2.62-5.08-1.33-3.11-4.14-5.61-8.74-7.71-13.46-1.65-3.33-2.28-7.11-4.6-10.08.33-2.06-.94-4.11-1.78-5.94-.78-1.67-1.53-3.36-2.23-5.07-14.59-39.62-19.78-82.1-25.9-123.67-4.4-27.99-3.73-56.71-9.95-84.38,15.1-12.25,14.74-34.87,8.17-51.58,14.04-39.15-9.76-78.12-12.64-117.12-.92-28.46,3.82-62.63-25.82-78.7-3.75-2.07-7.79-3.74-12-4.56-3.9-2.19-8.55-2.72-12.97-2.81-2.49-1.35-3.2-4.45-4.1-6.95-.24-.9-.79-1.91-.89-2.83,0-.08-.13-.11-.15-.02-3.46,9.11,5.27,18.62,14.15,19.77,4,14.09-4.42,26.66-19.59,25.86-17.57-1.32-42.41-10.99-48.76-28.8,2.8-.05,5.47-.92,8.11-1.75.61-.28,1.46-.24,1.84-.86,6.07-3.05,10.76-8.78,11.77-15.51-.04.03-.12.08-.23.16.1-.07.2-.14.28-.21.09-1.03.1-2.07,0-3.1-.47-.42-1.13-.65-1.89-.49-2.34.47-2.38,2.93-2.76,4.77-.34,1.66-.97,3.19-1.82,4.65-3.46,5.87-10.09,9.96-17.02,9.07-.32-.28-.76-.42-1.19-.28.03.03.06.05.1.08-40.71-1.49-55.24,29.72-62.33,64.55C1.28,202.54-.95,228.86.37,255.01c.32,3.02-.08,11.26,1.9,13.04,4.35,13.19,12.69,14.87,22.96,22.77-.35,1-2.75,3.4-3.25,6-.37,1.9,1.89,4.51,2.3,6.54.75,3.76,4.69,7.19,4.67,8.61-.16,3.71,0,.45-.34,4.15-.31,3.34-1.18,7.09.03,10.35.77,2.05,2.51,4.19,4.8,4.47.62,5.61.82,11.28,1.3,16.89.58,51.39,6.47,103.06-1.66,154.17-2.99,19.41-5.46,39.07-3.42,58.71,1.53,14.59,4.43,29.03,7.61,43.33.58,1.89,2.08,3.69,4.19,3.37.73.44,1.62.78,2.41.4.11,9.14,1.3,18.27.64,27.41-.44-.26-.88-.52-1.33-.77-.26-.55-.77-1.08-1.39-.75-.14-.06-.31.06-.28.2-1.13,3.05-1.89,6.38-2.52,9.59-2.2,4.22-3.53,8.93-3.98,13.68-.22,1.86-.54,4.25,1.1,5.58-.57.02-1.27.07-1.44.73-.8,1.97-2.12,14.06.87,14,11.56.7,23.16.89,34.74,1.31.63.02,1.23-.46,1.39-1.06.37-1.35.76-2.69,1.15-4.03,18.37,10.06,62.24,4.2,73.31,1.95,2.28,0,2.43-7.09,2.28-9.25,1.29-1.63.48-4.35-.31-6.07-3.34-7.23-12.08-8-19.01-9.15-10.69-2.06-21.17-6.09-29.62-13.06,2.28-2.16,4.98-5.73,4.69-8.99-.3-1.42-1.58-2.2-2.98-2.12-3.18.27-5.5,3.61-7.29,5.9-.38-.4-.74-.79-1.11-1.2-.04-.85-.61-1.68-1.6-1.56-1.97.23-3.88.71-5.75,1.35-.46-2.15-1.32-4.25-1.8-6.41-1.26-5.41-1.56-10.94-1.68-16.49,2.3-.04,3.62-.15,5.4-1.09.97.28,2.07-.07,2.37-1.37.98-4.21,1.03-8.56,1.33-12.87,3.3-54.58,9.25-109.54,28.22-161.19,1.98,6.23,4.59,12.23,6.81,18.37,15.57,40.48,25.24,82.84,36.49,124.64.95,3.51,1.92,7.02,2.91,10.51,1.38,5.96,4.28,8.71,10.63,8.69,4.17.19,8.35.15,12.52-.13,4.92,4.65,7.31,10.85,9.03,17.2-1.26.63-4.97-.3-5.14,1.41-1.56,2.55-.89,5.83-.92,8.68.23,3.82.03,7.87,1.17,11.53.06,3.86.22,7.71.42,11.57-3.4,2.45-2.38,7.33-1.45,10.77-.19,2.44,20.07,1.34,22.96,1.56,4.75-.39,11.76,1.09,14.27-4.07,15.76,7.74,37.6,2.23,54.58.66,5.98-.88,11.93-1.91,17.86-3.09.86-.17,1.28-1.15,1.1-1.93-.65-2.87-1.32-5.73-1.98-8.6Z"/></g><g id="Head"><g id="head_Hijab"><path id="Path-2" class="cls-2" d="M116.91,16.16c35.75,1.13,37.9,18.07,37.9,46.49s-18.54,46.32-25.37,49.45c-6.83,3.13-24.81,16.56-41.03,10.37-16.22-6.19-11.53-32.34-11.53-43.57s4.28-63.86,40.03-62.74Z"/><path id="_-Ink-2" class="cls-1" d="M131.41,102.76c-6.56,3.66-14.08,3.8-21.14,1.5-4.23-1.38-8.12-3.51-11.75-6.05-3.16-2.22-5.98-4.67-8.78-7.28-2.3-5.06-4.35-10.12-5.31-15.63-.86-4.95-.97-10.08.02-15.02,7.38-6.06,14.71-12.16,22.03-18.29,3.73-3.12,7.47-6.22,11.25-9.27,1.92-1.55,3.82-3.12,5.74-4.68.32-.26.63-.51.95-.77,3.95,2.89,8.19,5.36,12.11,8.3,2.05,1.54,4.05,3.18,5.95,4.9,1,.9,1.97,1.83,2.92,2.79.87.87,1.71,2.12,2.94,2.45.17.04.33.05.48.03,1.65,14.4,2.82,29.95-4.24,43.03-3.08,5.7-7.45,10.81-13.17,14ZM88.71,108.06c-.9-.83.44-2.16,1.34-1.34,5.65,5.17,13.04,7.91,20.51,9.18,1.2.21.69,2.03-.51,1.83-7.79-1.32-15.46-4.28-21.35-9.66ZM81.93,115.99c-1.08-.58-.12-2.21.96-1.64,4.4,2.36,9.24,3.58,14.14,4.41,1.21.2.69,2.03-.5,1.83-5.07-.86-10.04-2.16-14.59-4.6ZM99.85,36.11c3.65-3.27,7.58-6.39,11.73-9.02,4.2-2.66,8.78-4.25,13.74-4.29-.35.28-.68.59-1.01.87-.94.8-1.87,1.6-2.8,2.4-1.87,1.6-3.74,3.21-5.58,4.84-3.63,3.21-7.27,6.41-10.89,9.63-6.96,6.19-13.77,12.52-20.44,19.02.04-.16.07-.32.11-.48,2.21-9.2,8.21-16.78,15.14-22.99ZM128.5,23.21c.02-.07.04-.14.05-.21,9.51,1.24,17.46,8.22,20.08,17.42-.23.32-.35.69-.31,1.09.02.2.05.41.07.61-.33-.32-.66-.62-.94-.91-.95-.96-1.92-1.89-2.92-2.8-2.04-1.86-4.16-3.59-6.39-5.21-3.88-2.82-8.09-5.4-12.72-6.75.3-.25.61-.5.91-.74.91-.74,1.76-1.35,2.16-2.5ZM145.56,13.37c-5.84-6.37-13.93-11.03-22.44-12.65-8.13-1.55-16.55-.53-24.23,2.48-16.08,6.3-28.76,20.17-34.7,36.23-3.46,9.36-4.6,19.62-3.56,29.53,1.04,9.86,4.01,20.05,9.43,28.44.5.77,1.04,1.51,1.61,2.22-.25,2.9-1.22,5.74-2.75,8.21-.08.13-.17.26-.25.39-1.56,1.17-3.18,2.26-4.76,3.39-1.37.98-2.73,1.98-4.01,3.07-1.22,1.02-2.63,2.16-3.45,3.55-.67,1.13-.95,2.67-.03,3.75,1.11,1.3,2.99.84,4.49.84.13,0,.26,0,.39,0,.45.28.92.54,1.37.78,4.55,2.41,9.12,4.79,13.7,7.16,9.11,4.72,18.18,9.64,27.48,13.99,4.31,2.02,8.92,3.78,13.75,3.77,4.53,0,8.62-1.8,12.15-4.53,4.03-3.11,7.4-7.05,10.66-10.92,1.31-1.55,2.59-3.11,3.84-4.7,2.41-.8,4.81-1.04,6.96.51,1.73,1.24,4-.45,4.04-2.32.01-.66-.01-1.32-.09-1.96-.43-3.98-2.38-7.58-4.58-10.93-1.2-1.83-2.47-3.62-3.74-5.4-.3-.42-.59-.84-.88-1.27,5.11-7.51,9.17-15.84,11.66-24.55,2.62-9.16,3.51-18.66,2.93-28.15-.9-14.55-4.9-29.94-14.97-40.93Z"/></g><g id="face_Smile"><path id="_-Ink-3" class="cls-1" d="M127.67,92.42c-1.6-.65-3.02-1.73-4.06-3.12-.36-.48-.46-.99-.38-1.45.09-.52.4-1,.82-1.31.42-.32.95-.48,1.47-.4.45.07.89.31,1.24.82l.07.1c.62.84,1.43,1.52,2.35,1.96.89.43,1.88.62,2.9.51,1.95-.22,3.3-1.27,4.73-2.71.18-.18.35-.37.53-.56.11-.17.27-.28.44-.34.19-.06.41-.06.61,0,.19.07.36.19.48.36.11.16.17.36.15.59-.13,1.48-.91,2.81-2.01,3.85-1.23,1.15-2.85,1.95-4.38,2.23-1.69.31-3.4.09-4.96-.55h0ZM133.42,69.53c1.79,1.09,4.53,3.62,2.6,6.32-2.27,2.38-5.54-.35-7.15-1.58-1.49-.96-3.17,1.5-1.79,2.62,11.64,8.6,16.37-7.07,7.25-8.64-1-.17-1.38.94-.91,1.28ZM112.56,59.52c.2-2.45,3.94-3.01,4.32-.58.33,2.18-.06,4.17-1.04,6.13-.94,1.87-3.3,1-3.48-.71-.24-2.28.08-3.32.2-4.84ZM141.08,58.44c.52-.68,1.28-1.15,2.18-.89,2.82.82,1.99,4.82,1,6.77-.54,1.06-2.28,1.33-3.07.39-1.28-1.52-1.9-4.55-.27-6.04.04-.08.09-.16.15-.23ZM115.8,48.78l.45-.08c1.38-.24,3.09-.47,4.07.64.52.59.7,1.68,0,2.24-1.22.99-2.58.61-4.04.69-1.21.07-2.37.27-3.53.6-2.55.73-4.63,2.06-6.81,3.52-.29.19-.58-.17-.44-.44,1.26-2.46,3.7-4.48,6.14-5.71,1.3-.66,2.73-1.2,4.17-1.45ZM138.5,47.68l.34.07c3.71.77,8.54,2.32,10.3,5.96.07.51,0,.63-.06.7l-.02.02c-.05.06-.09.15-.31.22-.06-.01-.12-.03-.19-.05-.81-.21-1.44-.5-2.06-.8l-.67-.33c-.78-.38-1.56-.75-2.39-1.02-1.77-.58-3.6-.98-5.45-1.2-.4-.05-.79-.18-1.09-.41-.29-.22-.51-.52-.61-.93-.13-.52-.09-.92.19-1.39.21-.35.51-.6.86-.74.35-.14.76-.18,1.16-.1Z"/></g></g></g></g></g><path class="cls-3" d="M86.74,256.4s5.87-1.19,9.53.52c1.56.73,24.17,40.41,25.57,43.48s-.89,8.51-.89,8.51c0,0-.91,2.98-3.65,4.77s-6.4,3.96-6.4,3.96"/></svg>